<?xml version="1.0" encoding="UTF-8" standalone="no"?>
<svg
   width="20"
   height="19.780998"
   viewBox="0 0 20 19.780998"
   fill="none"
   version="1.1"
   id="svg22"
   xmlns="http://www.w3.org/2000/svg"
   xmlns:svg="http://www.w3.org/2000/svg">
  <rect
     y="-12"
     width="64"
     height="44"
     fill="#3b1969"
     id="rect6"
     x="-20"
     style="display:none" />
  <path
     d="m 13.5419,0 h 3.5205 c 0.8082,0 1.5429,0.33 2.0749,0.863 C 19.6694,1.395 20,2.129 20,2.938 v 3.521 c 0,0.808 -0.3306,1.543 -0.8627,2.075 -0.532,0.532 -1.2667,0.862 -2.0749,0.862 H 13.5419 C 12.7337,9.396 11.999,9.066 11.4664,8.534 10.9343,8.002 10.6037,7.267 10.6037,6.459 V 2.938 c 0,-0.808 0.3306,-1.543 0.8627,-2.075 C 11.9984,0.331 12.7331,0 13.5419,0 Z M 5.6958,2.769 H 3.6999 C 3.4446,2.769 3.2113,2.874 3.0423,3.042 2.8733,3.211 2.7686,3.444 2.7686,3.7 v 1.996 c 0,0.255 0.1047,0.488 0.2737,0.657 0.169,0.169 0.4016,0.275 0.6576,0.275 H 5.6958 C 5.9511,6.628 6.1844,6.522 6.3534,6.353 6.5224,6.184 6.6271,5.952 6.6271,5.696 V 3.7 C 6.6271,3.444 6.5224,3.211 6.3534,3.042 6.1844,2.873 5.9518,2.769 5.6958,2.769 Z M 3.6999,1.831 h 1.9959 c 0.5143,0 0.9815,0.21 1.3201,0.549 0.3385,0.338 0.5485,0.806 0.5485,1.32 v 1.996 c 0,0.514 -0.21,0.982 -0.5485,1.32 C 6.6773,7.354 6.2101,7.564 5.6958,7.564 H 3.6999 C 3.1856,7.564 2.7178,7.354 2.3798,7.016 2.0413,6.677 1.8313,6.21 1.8313,5.696 V 3.7 c 0,-0.514 0.21,-0.982 0.5485,-1.32 C 2.7184,2.041 3.1856,1.831 3.6999,1.831 Z m 12.6002,11.322 h -1.9959 c -0.2553,0 -0.4886,0.105 -0.6576,0.274 -0.169,0.169 -0.2737,0.401 -0.2737,0.657 v 1.996 c 0,0.256 0.1047,0.489 0.2737,0.658 0.169,0.169 0.4016,0.274 0.6576,0.274 h 1.9959 c 0.2553,0 0.4886,-0.105 0.6576,-0.274 0.169,-0.169 0.2737,-0.402 0.2737,-0.658 v -1.996 c 0,-0.255 -0.1047,-0.488 -0.2737,-0.657 -0.169,-0.169 -0.4016,-0.274 -0.6576,-0.274 z m -1.9959,-0.937 h 1.9959 c 0.5143,0 0.9821,0.21 1.3201,0.548 0.3385,0.339 0.5485,0.806 0.5485,1.32 v 1.996 c 0,0.515 -0.21,0.982 -0.5485,1.32 -0.3386,0.339 -0.8058,0.549 -1.3201,0.549 h -1.9959 c -0.5143,0 -0.9815,-0.21 -1.3201,-0.549 -0.3385,-0.338 -0.5485,-0.805 -0.5485,-1.32 v -1.996 c 0,-0.514 0.21,-0.982 0.5485,-1.32 0.3386,-0.338 0.8058,-0.548 1.3201,-0.548 z M 2.9376,10.384 h 3.5205 c 0.8082,0 1.5429,0.331 2.0755,0.863 0.5321,0.532 0.8627,1.267 0.8627,2.075 v 3.521 c 0,0.808 -0.3306,1.542 -0.8627,2.075 -0.532,0.532 -1.2667,0.863 -2.0755,0.863 H 2.9376 c -0.8082,0 -1.5429,-0.33 -2.0749,-0.863 C 0.3306,18.386 0,17.651 0,16.843 v -3.521 c 0,-0.808 0.3306,-1.543 0.8627,-2.075 0.532,-0.532 1.2667,-0.863 2.0749,-0.863 z m 3.5205,0.938 H 2.9376 c -0.5498,0 -1.0494,0.225 -1.4125,0.588 -0.363,0.363 -0.5883,0.863 -0.5883,1.413 v 3.52 c 0,0.55 0.2253,1.05 0.5883,1.413 0.3631,0.363 0.8627,0.587 1.4125,0.587 h 3.5205 c 0.5498,0 1.05,-0.225 1.4125,-0.587 0.363,-0.363 0.5877,-0.863 0.5877,-1.413 v -3.52 c 0,-0.55 -0.2253,-1.05 -0.5877,-1.413 C 7.5075,11.547 7.0079,11.322 6.4581,11.322 Z M 17.0624,0.937 h -3.5205 c -0.5498,0 -1.05,0.226 -1.4125,0.588 -0.363,0.363 -0.5877,0.863 -0.5877,1.413 v 3.52 c 0,0.55 0.2253,1.05 0.5877,1.413 0.3631,0.363 0.8627,0.588 1.4125,0.588 h 3.5205 c 0.5498,0 1.0494,-0.225 1.4125,-0.588 0.363,-0.363 0.5883,-0.863 0.5883,-1.413 v -3.52 c 0,-0.55 -0.2253,-1.05 -0.5883,-1.413 C 18.1118,1.162 17.6122,0.937 17.0624,0.937 Z"
     fill="#ffffff"
     id="path7" />
  <path
     d="M 6.4581,11.322 H 2.9376 c -0.5498,0 -1.0494,0.225 -1.4125,0.588 -0.363,0.363 -0.5883,0.863 -0.5883,1.413 v 3.52 c 0,0.55 0.2253,1.05 0.5883,1.413 0.3631,0.363 0.8627,0.587 1.4125,0.587 h 3.5205 c 0.5498,0 1.05,-0.225 1.4125,-0.587 0.363,-0.363 0.5877,-0.863 0.5877,-1.413 v -3.52 c 0,-0.55 -0.2253,-1.05 -0.5877,-1.413 C 7.5075,11.547 7.0079,11.322 6.4581,11.322 Z"
     fill="#ffffff"
     id="path8" />
  <path
     d="m 17.0624,0.937 h -3.5205 c -0.5498,0 -1.05,0.226 -1.4125,0.588 -0.363,0.363 -0.5877,0.863 -0.5877,1.413 v 3.52 c 0,0.55 0.2253,1.05 0.5877,1.413 0.3631,0.363 0.8627,0.588 1.4125,0.588 h 3.5205 c 0.5498,0 1.0494,-0.225 1.4125,-0.588 0.363,-0.363 0.5883,-0.863 0.5883,-1.413 v -3.52 c 0,-0.55 -0.2253,-1.05 -0.5883,-1.413 C 18.1118,1.162 17.6122,0.937 17.0624,0.937 Z"
     fill="#ffffff"
     id="path9" />
  <path
     d="M 5.6958,2.769 H 3.6999 C 3.4446,2.769 3.2113,2.874 3.0423,3.042 2.8733,3.211 2.7686,3.444 2.7686,3.7 v 1.996 c 0,0.255 0.1047,0.488 0.2737,0.657 0.169,0.169 0.4016,0.275 0.6576,0.275 H 5.6958 C 5.9511,6.628 6.1844,6.522 6.3534,6.353 6.5224,6.184 6.6271,5.952 6.6271,5.696 V 3.7 C 6.6271,3.444 6.5224,3.211 6.3534,3.042 6.1844,2.873 5.9518,2.769 5.6958,2.769 Z"
     fill="#ffffff"
     id="path10" />
  <path
     d="m 16.3001,13.153 h -1.9959 c -0.2553,0 -0.4886,0.105 -0.6576,0.274 -0.169,0.169 -0.2737,0.401 -0.2737,0.657 v 1.996 c 0,0.256 0.1047,0.489 0.2737,0.658 0.169,0.169 0.4016,0.274 0.6576,0.274 h 1.9959 c 0.2553,0 0.4886,-0.105 0.6576,-0.274 0.169,-0.169 0.2737,-0.402 0.2737,-0.658 v -1.996 c 0,-0.255 -0.1047,-0.488 -0.2737,-0.657 -0.169,-0.169 -0.4016,-0.274 -0.6576,-0.274 z"
     fill="#ffffff"
     id="path11" />
  <defs
     id="defs22" />
</svg>
