<?xml version="1.0" encoding="UTF-8" standalone="no"?>
<svg
   width="20"
   height="19.7808"
   viewBox="0 0 20 19.7808"
   fill="none"
   version="1.1"
   id="svg22"
   xmlns="http://www.w3.org/2000/svg"
   xmlns:svg="http://www.w3.org/2000/svg">
  <g
     filter="url(#filter0_d_1_52)"
     id="g6"
     transform="translate(-22,-56)">
    <path
       d="m 35.5419,56 h 3.5205 c 0.8082,0 1.5429,0.33 2.0749,0.8627 C 41.6694,57.3947 42,58.1294 42,58.9382 v 3.5205 c 0,0.8082 -0.3306,1.5429 -0.8627,2.0749 -0.532,0.5321 -1.2667,0.8627 -2.0749,0.8627 h -3.5205 c -0.8082,0 -1.5429,-0.3306 -2.0755,-0.8627 -0.5321,-0.532 -0.8627,-1.2667 -0.8627,-2.0749 v -3.5205 c 0,-0.8082 0.3306,-1.5429 0.8627,-2.0755 C 33.9984,56.3306 34.7331,56 35.5419,56 Z m -7.8461,2.7686 h -1.9959 c -0.2553,0 -0.4886,0.1053 -0.6576,0.2737 -0.169,0.169 -0.2737,0.4016 -0.2737,0.6576 v 1.9959 c 0,0.2553 0.1047,0.4886 0.2737,0.6576 0.169,0.169 0.4016,0.2743 0.6576,0.2743 h 1.9959 c 0.2553,0 0.4886,-0.1053 0.6576,-0.2743 0.169,-0.169 0.2737,-0.4016 0.2737,-0.6576 v -1.9959 c 0,-0.256 -0.1047,-0.4886 -0.2737,-0.6576 -0.169,-0.169 -0.4016,-0.2737 -0.6576,-0.2737 z m -1.9959,-0.9373 h 1.9959 c 0.5143,0 0.9815,0.21 1.3201,0.5485 0.3385,0.3386 0.5485,0.8058 0.5485,1.3201 v 1.9959 c 0,0.5143 -0.21,0.9821 -0.5485,1.3201 -0.3386,0.3385 -0.8058,0.5485 -1.3201,0.5485 h -1.9959 c -0.5143,0 -0.9821,-0.21 -1.3201,-0.5485 -0.3385,-0.3386 -0.5485,-0.8058 -0.5485,-1.3201 v -1.9959 c 0,-0.5143 0.21,-0.9821 0.5485,-1.3201 0.3386,-0.3385 0.8058,-0.5485 1.3201,-0.5485 z m 12.6002,11.3218 h -1.9959 c -0.2553,0 -0.4886,0.1047 -0.6576,0.2737 -0.169,0.169 -0.2737,0.4016 -0.2737,0.6576 v 1.9959 c 0,0.2553 0.1047,0.4886 0.2737,0.6576 0.169,0.169 0.4016,0.2737 0.6576,0.2737 h 1.9959 c 0.2553,0 0.4886,-0.1047 0.6576,-0.2737 0.169,-0.169 0.2737,-0.4017 0.2737,-0.6576 v -1.9959 c 0,-0.2553 -0.1047,-0.4886 -0.2737,-0.6576 -0.169,-0.169 -0.4016,-0.2737 -0.6576,-0.2737 z m -1.9959,-0.9373 h 1.9959 c 0.5143,0 0.9821,0.21 1.3201,0.5485 0.3385,0.3386 0.5485,0.8058 0.5485,1.3201 v 1.9959 c 0,0.5143 -0.21,0.9815 -0.5485,1.3201 -0.3386,0.3385 -0.8058,0.5485 -1.3201,0.5485 h -1.9959 c -0.5143,0 -0.9815,-0.21 -1.3201,-0.5485 -0.3385,-0.3386 -0.5485,-0.8058 -0.5485,-1.3201 v -1.9959 c 0,-0.5143 0.21,-0.9821 0.5485,-1.3201 0.3386,-0.3385 0.8058,-0.5485 1.3201,-0.5485 z M 24.9376,66.3845 h 3.5205 c 0.8082,0 1.5429,0.3306 2.0755,0.8627 0.5321,0.532 0.8627,1.2667 0.8627,2.0749 v 3.5205 c 0,0.8082 -0.3306,1.5429 -0.8627,2.0755 -0.532,0.5321 -1.2667,0.8627 -2.0755,0.8627 h -3.5205 c -0.8082,0 -1.5429,-0.33 -2.0749,-0.8627 C 22.3306,74.3861 22,73.6514 22,72.8426 v -3.5205 c 0,-0.8082 0.3306,-1.5429 0.8627,-2.0749 0.532,-0.5321 1.2667,-0.8627 2.0749,-0.8627 z m 3.5205,0.9374 h -3.5205 c -0.5498,0 -1.0494,0.2253 -1.4125,0.5883 -0.363,0.3625 -0.5883,0.8627 -0.5883,1.4125 v 3.5205 c 0,0.5498 0.2253,1.05 0.5883,1.4125 0.3631,0.363 0.8627,0.5877 1.4125,0.5877 h 3.5205 c 0.5498,0 1.05,-0.2253 1.4125,-0.5877 0.363,-0.3631 0.5877,-0.8627 0.5877,-1.4125 v -3.5205 c 0,-0.5498 -0.2253,-1.05 -0.5877,-1.4125 -0.3631,-0.363 -0.8627,-0.5883 -1.4125,-0.5883 z M 39.0624,56.9374 h -3.5205 c -0.5498,0 -1.05,0.2253 -1.4125,0.5877 -0.363,0.3631 -0.5877,0.8627 -0.5877,1.4125 v 3.5205 c 0,0.5498 0.2253,1.05 0.5877,1.4125 0.3631,0.363 0.8627,0.5883 1.4125,0.5883 h 3.5205 c 0.5498,0 1.0494,-0.2253 1.4125,-0.5883 0.363,-0.3625 0.5883,-0.8627 0.5883,-1.4125 v -3.5205 c 0,-0.5498 -0.2253,-1.05 -0.5883,-1.4125 -0.3631,-0.363 -0.8627,-0.5877 -1.4125,-0.5877 z"
       fill="url(#paint0_linear_1_52)"
       id="path2"
       style="fill:url(#paint0_linear_1_52)" />
    <path
       d="m 28.4581,67.3219 h -3.5205 c -0.5498,0 -1.0494,0.2253 -1.4125,0.5883 -0.363,0.3625 -0.5883,0.8627 -0.5883,1.4125 v 3.5205 c 0,0.5498 0.2253,1.05 0.5883,1.4125 0.3631,0.363 0.8627,0.5877 1.4125,0.5877 h 3.5205 c 0.5498,0 1.05,-0.2253 1.4125,-0.5877 0.363,-0.3631 0.5877,-0.8627 0.5877,-1.4125 v -3.5205 c 0,-0.5498 -0.2253,-1.05 -0.5877,-1.4125 -0.3631,-0.363 -0.8627,-0.5883 -1.4125,-0.5883 z"
       fill="url(#paint1_linear_1_52)"
       id="path3"
       style="fill:url(#paint1_linear_1_52)" />
    <path
       d="m 39.0624,56.9374 h -3.5205 c -0.5498,0 -1.05,0.2253 -1.4125,0.5877 -0.363,0.3631 -0.5877,0.8627 -0.5877,1.4125 v 3.5205 c 0,0.5498 0.2253,1.05 0.5877,1.4125 0.3631,0.363 0.8627,0.5883 1.4125,0.5883 h 3.5205 c 0.5498,0 1.0494,-0.2253 1.4125,-0.5883 0.363,-0.3625 0.5883,-0.8627 0.5883,-1.4125 v -3.5205 c 0,-0.5498 -0.2253,-1.05 -0.5883,-1.4125 -0.3631,-0.363 -0.8627,-0.5877 -1.4125,-0.5877 z"
       fill="url(#paint2_linear_1_52)"
       id="path4"
       style="fill:url(#paint2_linear_1_52)" />
    <path
       d="m 27.6958,58.7686 h -1.9959 c -0.2553,0 -0.4886,0.1053 -0.6576,0.2737 -0.169,0.169 -0.2737,0.4016 -0.2737,0.6576 v 1.9959 c 0,0.2553 0.1047,0.4886 0.2737,0.6576 0.169,0.169 0.4016,0.2743 0.6576,0.2743 h 1.9959 c 0.2553,0 0.4886,-0.1053 0.6576,-0.2743 0.169,-0.169 0.2737,-0.4016 0.2737,-0.6576 v -1.9959 c 0,-0.256 -0.1047,-0.4886 -0.2737,-0.6576 -0.169,-0.169 -0.4016,-0.2737 -0.6576,-0.2737 z"
       fill="url(#paint3_linear_1_52)"
       id="path5"
       style="fill:url(#paint3_linear_1_52)" />
    <path
       d="m 38.3001,69.1531 h -1.9959 c -0.2553,0 -0.4886,0.1047 -0.6576,0.2737 -0.169,0.169 -0.2737,0.4016 -0.2737,0.6576 v 1.9959 c 0,0.2553 0.1047,0.4886 0.2737,0.6576 0.169,0.169 0.4016,0.2737 0.6576,0.2737 h 1.9959 c 0.2553,0 0.4886,-0.1047 0.6576,-0.2737 0.169,-0.169 0.2737,-0.4017 0.2737,-0.6576 v -1.9959 c 0,-0.2553 -0.1047,-0.4886 -0.2737,-0.6576 -0.169,-0.169 -0.4016,-0.2737 -0.6576,-0.2737 z"
       fill="url(#paint4_linear_1_52)"
       id="path6"
       style="fill:url(#paint4_linear_1_52)" />
  </g>
  <defs
     id="defs22">
    <filter
       id="filter0_d_1_52"
       x="18"
       y="54"
       width="28"
       height="27.7808"
       filterUnits="userSpaceOnUse"
       color-interpolation-filters="sRGB">
      <feFlood
         flood-opacity="0"
         result="BackgroundImageFix"
         id="feFlood11" />
      <feColorMatrix
         in="SourceAlpha"
         type="matrix"
         values="0 0 0 0 0 0 0 0 0 0 0 0 0 0 0 0 0 0 127 0"
         result="hardAlpha"
         id="feColorMatrix11" />
      <feOffset
         dy="2"
         id="feOffset11" />
      <feGaussianBlur
         stdDeviation="2"
         id="feGaussianBlur11" />
      <feComposite
         in2="hardAlpha"
         operator="out"
         id="feComposite11" />
      <feColorMatrix
         type="matrix"
         values="0 0 0 0 0.443137 0 0 0 0 0.223529 0 0 0 0 0.729412 0 0 0 0.22 0"
         id="feColorMatrix12" />
      <feBlend
         mode="normal"
         in2="BackgroundImageFix"
         result="effect1_dropShadow_1_52"
         id="feBlend12" />
      <feBlend
         mode="normal"
         in="SourceGraphic"
         in2="effect1_dropShadow_1_52"
         result="shape"
         id="feBlend13" />
    </filter>
    <linearGradient
       id="paint0_linear_1_52"
       x1="32"
       y1="56"
       x2="32"
       y2="75.7808"
       gradientUnits="userSpaceOnUse">
      <stop
         stop-color="#1C6DFF"
         id="stop13" />
      <stop
         offset="1"
         stop-color="#C025FF"
         id="stop14" />
    </linearGradient>
    <linearGradient
       id="paint1_linear_1_52"
       x1="32"
       y1="56"
       x2="32"
       y2="75.7808"
       gradientUnits="userSpaceOnUse">
      <stop
         stop-color="#1C6DFF"
         id="stop15" />
      <stop
         offset="1"
         stop-color="#C025FF"
         id="stop16" />
    </linearGradient>
    <linearGradient
       id="paint2_linear_1_52"
       x1="32"
       y1="56"
       x2="32"
       y2="75.7808"
       gradientUnits="userSpaceOnUse">
      <stop
         stop-color="#1C6DFF"
         id="stop17" />
      <stop
         offset="1"
         stop-color="#C025FF"
         id="stop18" />
    </linearGradient>
    <linearGradient
       id="paint3_linear_1_52"
       x1="32"
       y1="56"
       x2="32"
       y2="75.7808"
       gradientUnits="userSpaceOnUse">
      <stop
         stop-color="#1C6DFF"
         id="stop19" />
      <stop
         offset="1"
         stop-color="#C025FF"
         id="stop20" />
    </linearGradient>
    <linearGradient
       id="paint4_linear_1_52"
       x1="32"
       y1="56"
       x2="32"
       y2="75.7808"
       gradientUnits="userSpaceOnUse">
      <stop
         stop-color="#1C6DFF"
         id="stop21" />
      <stop
         offset="1"
         stop-color="#C025FF"
         id="stop22" />
    </linearGradient>
  </defs>
</svg>
