<?xml version="1.0" encoding="UTF-8" standalone="no"?>
<svg
   width="18.126402"
   height="17.905998"
   viewBox="0 0 18.126402 17.905998"
   fill="none"
   version="1.1"
   id="svg22"
   xmlns="http://www.w3.org/2000/svg"
   xmlns:svg="http://www.w3.org/2000/svg">
  <path
     d="m 0.9416,11.3267 3e-4,-3e-4 c 0.2743,-0.2743 0.6486,-0.4419 1.0589,-0.4419 h 3.5205 c 0.4103,0 0.7846,0.1676 1.0589,0.4419 0.2735,0.2735 0.4413,0.6483 0.4413,1.0589 v 3.5205 c 0,0.4107 -0.1673,0.7849 -0.4413,1.0589 C 6.3068,17.2382 5.9319,17.406 5.5213,17.406 H 2.0008 c -0.4107,0 -0.7849,-0.1673 -1.0589,-0.4413 l -3e-4,-3e-4 C 0.6678,16.6911 0.5,16.3164 0.5,15.9058 V 12.3853 C 0.5,11.9748 0.6678,11.6 0.9416,11.3267 Z m 16.2432,-4.7473999 -3e-4,3e-4 c -0.2743,0.2743 -0.6486,0.4419 -1.0589,0.4419 h -3.5205 c -0.4103,0 -0.7846,-0.1676 -1.0589,-0.4419 -0.2735,-0.2734 -0.4413,-0.6483 -0.4413,-1.0589 v -3.5205 c 0,-0.4107 0.1673,-0.7849 0.4413,-1.05889996 0.2734,-0.2735 0.6483,-0.4413 1.0589,-0.4413 h 3.5205 c 0.4107,0 0.7849,0.1673 1.0589,0.4413 l 3e-4,3e-4 c 0.2738,0.27329996 0.4416,0.64809996 0.4416,1.05859996 v 3.5205 c 0,0.4105 -0.1678,0.7853 -0.4416,1.0586 z M 2.7631,2.3312001 H 4.759 c 0.1168,0 0.2241,0.0473 0.304,0.1273 0.08,0.0799 0.1273,0.1872 0.1273,0.304 v 1.9959 c 0,0.1168 -0.0473,0.2241 -0.1273,0.304 -0.0804,0.0805 -0.1885,0.1279 -0.304,0.1279 H 2.7631 c -0.116,0 -0.2235,-0.0473 -0.304,-0.1279 -0.0799,-0.0798 -0.1273,-0.1877 -0.1273,-0.304 v -1.9959 c 0,-0.1166 0.0472,-0.2238 0.1269,-0.3037 0.0807,-0.0802 0.1889,-0.1276 0.3044,-0.1276 z M 13.3674,12.7157 h 1.9959 c 0.1168,0 0.2241,0.0473 0.304,0.1273 0.0799,0.0798 0.1273,0.1877 0.1273,0.304 v 1.9959 c 0,0.1168 -0.0473,0.2241 -0.1273,0.304 -0.0798,0.0799 -0.1877,0.1273 -0.304,0.1273 h -1.9959 c -0.1168,0 -0.2241,-0.0473 -0.304,-0.1273 -0.0799,-0.0798 -0.1273,-0.1877 -0.1273,-0.304 V 13.147 c 0,-0.1168 0.0473,-0.2241 0.1273,-0.304 0.0798,-0.0799 0.1877,-0.1273 0.304,-0.1273 z"
     stroke="#50595f"
     id="path1" />
  <defs
     id="defs22" />
</svg>
