<?xml version="1.0" encoding="UTF-8" standalone="no"?>
<svg
   width="17.665344"
   height="20"
   viewBox="0 0 17.665344 20"
   fill="none"
   version="1.1"
   id="svg11"
   xmlns="http://www.w3.org/2000/svg"
   xmlns:svg="http://www.w3.org/2000/svg">
  <path
     d="m 9.7649169,1.6199 v 0.5453 l 0.5186001,0.1682 c 2.0107,0.6521 3.4689,2.555 3.4689,4.7071 0,3.0721 0.6668,5.3906 2.8207,7.6791 l 9e-4,10e-4 c 0.3614,0.3827 0.3872,0.7635 0.3053,0.9955 -0.0759,0.2151 -0.2803,0.4186 -0.6946,0.4186 H 1.4806169 c -0.4143,0 -0.61869999,-0.2035 -0.69459999,-0.4186 -0.0819,-0.232 -0.0562,-0.6128 0.30529999,-0.9955 l 9e-4,-10e-4 c 2.1539,-2.2885 2.8207,-4.607 2.8207,-7.6791 0,-2.1521 1.4582,-4.055 3.4689,-4.7071 l 0.5186,-0.1682 V 1.6199 c 0,-0.4398 0.3934,-0.8699 0.9322,-0.8699 0.5389,0 0.9323,0.4301 0.9323,0.8699 z"
     stroke="#50595f"
     stroke-width="1.5"
     id="path1" />
  <path
     d="m 6.7860169,18.2578 h 4.0932001 c -0.475,0.6034 -1.2148001,0.9922 -2.0466001,0.9922 -0.8318,0 -1.5715,-0.3888 -2.0466,-0.9922 z"
     stroke="#50595f"
     stroke-width="1.5"
     id="path2" />
  <defs
     id="defs11" />
</svg>
