<?xml version="1.0" encoding="UTF-8" standalone="no"?>
<svg
   width="17.671286"
   height="20"
   viewBox="0 0 17.671286 20"
   fill="none"
   version="1.1"
   id="svg11"
   xmlns="http://www.w3.org/2000/svg"
   xmlns:svg="http://www.w3.org/2000/svg">
  <rect
     y="-12"
     width="64"
     height="44"
     fill="#3b1969"
     id="rect4"
     x="-22.999971"
     style="display:none" />
  <path
     fill-rule="evenodd"
     clip-rule="evenodd"
     d="m 10.517929,1.62 c 2.3053,0.748 3.9875,2.928 3.9875,5.42 0,2.929 0.6231,5.047 2.6168,7.166 1.0592,1.121 0.4985,2.679 -0.9345,2.679 H 1.4836286 c -1.43299999,0 -1.99379999,-1.558 -0.93459999,-2.679 C 2.5428286,12.087 3.1659286,9.969 3.1659286,7.04 c 0,-2.492 1.6822,-4.672 3.9875,-5.42 0,-0.872 0.7477,-1.62 1.6822,-1.62 0.9346,0 1.6823004,0.748 1.6823004,1.62 z"
     fill="#ffffff"
     id="path5" />
  <path
     fill-rule="evenodd"
     clip-rule="evenodd"
     d="m 12.075529,17.508 c -0.3738,1.433 -1.6823,2.492 -3.2399004,2.492 -1.5576,0 -2.866,-1.059 -3.2399,-2.492 z"
     fill="#ffffff"
     id="path6" />
  <defs
     id="defs11" />
</svg>
