<?xml version="1.0" encoding="UTF-8" standalone="no"?>
<svg
   width="20"
   height="18.664101"
   viewBox="0 0 20 18.664101"
   fill="none"
   version="1.1"
   id="svg10"
   xmlns="http://www.w3.org/2000/svg"
   xmlns:svg="http://www.w3.org/2000/svg">
  <g
     filter="url(#filter0_d_1_263)"
     id="g3"
     transform="translate(-22,-57)">
    <path
       d="m 25.3475,70.6175 c 0.1297,0.1302 0.2292,0.2875 0.2912,0.4606 0.062,0.173 0.0851,0.3576 0.0675,0.5407 -0.088,0.8469 -0.2546,1.6838 -0.4975,2.4999 1.7438,-0.4037 2.8088,-0.8712 3.2926,-1.1162 0.2743,-0.139 0.5903,-0.1719 0.8874,-0.0925 0.8517,0.2279 1.7297,0.3423 2.6113,0.34 4.995,0 8.75,-3.5087 8.75,-7.5 0,-3.9913 -3.755,-7.5 -8.75,-7.5 -4.995,0 -8.75,3.51 -8.75,7.5 0,1.835 0.7712,3.5375 2.0975,4.8675 z m -0.6163,4.8813 c -0.2961,0.0586 -0.5933,0.1123 -0.8912,0.1612 -0.25,0.04 -0.44,-0.22 -0.3413,-0.4525 0.1107,-0.2619 0.2125,-0.5274 0.305,-0.7962 l 0.0038,-0.0125 c 0.31,-0.9 0.5625,-1.935 0.655,-2.8988 C 22.9288,69.9625 22,67.95 22,65.75 22,60.9175 26.4775,57 32,57 c 5.5225,0 10,3.9175 10,8.75 0,4.8325 -4.4775,8.75 -10,8.75 -0.9905,0.0022 -1.9769,-0.1264 -2.9338,-0.3825 -0.65,0.3288 -2.0487,0.9275 -4.335,1.3813 z"
       fill="url(#paint0_linear_1_263)"
       id="path2"
       style="fill:url(#paint0_linear_1_263)" />
    <path
       d="m 25.3475,70.6175 c 0.1297,0.1302 0.2292,0.2875 0.2912,0.4606 0.062,0.173 0.0851,0.3576 0.0675,0.5407 -0.088,0.8469 -0.2546,1.6838 -0.4975,2.4999 1.7438,-0.4037 2.8088,-0.8712 3.2926,-1.1162 0.2743,-0.139 0.5903,-0.1719 0.8874,-0.0925 0.8517,0.2279 1.7297,0.3423 2.6113,0.34 4.995,0 8.75,-3.5087 8.75,-7.5 0,-3.9913 -3.755,-7.5 -8.75,-7.5 -4.995,0 -8.75,3.51 -8.75,7.5 0,1.835 0.7712,3.5375 2.0975,4.8675 z"
       fill="url(#paint1_linear_1_263)"
       id="path3"
       style="fill:url(#paint1_linear_1_263)" />
  </g>
  <defs
     id="defs10">
    <filter
       id="filter0_d_1_263"
       x="18"
       y="55"
       width="28"
       height="26.664101"
       filterUnits="userSpaceOnUse"
       color-interpolation-filters="sRGB">
      <feFlood
         flood-opacity="0"
         result="BackgroundImageFix"
         id="feFlood5" />
      <feColorMatrix
         in="SourceAlpha"
         type="matrix"
         values="0 0 0 0 0 0 0 0 0 0 0 0 0 0 0 0 0 0 127 0"
         result="hardAlpha"
         id="feColorMatrix5" />
      <feOffset
         dy="2"
         id="feOffset5" />
      <feGaussianBlur
         stdDeviation="2"
         id="feGaussianBlur5" />
      <feComposite
         in2="hardAlpha"
         operator="out"
         id="feComposite5" />
      <feColorMatrix
         type="matrix"
         values="0 0 0 0 0.443137 0 0 0 0 0.223529 0 0 0 0 0.729412 0 0 0 0.22 0"
         id="feColorMatrix6" />
      <feBlend
         mode="normal"
         in2="BackgroundImageFix"
         result="effect1_dropShadow_1_263"
         id="feBlend6" />
      <feBlend
         mode="normal"
         in="SourceGraphic"
         in2="effect1_dropShadow_1_263"
         result="shape"
         id="feBlend7" />
    </filter>
    <linearGradient
       id="paint0_linear_1_263"
       x1="32"
       y1="57"
       x2="32"
       y2="75.664101"
       gradientUnits="userSpaceOnUse">
      <stop
         stop-color="#1C6DFF"
         id="stop7" />
      <stop
         offset="1"
         stop-color="#C025FF"
         id="stop8" />
    </linearGradient>
    <linearGradient
       id="paint1_linear_1_263"
       x1="32"
       y1="57"
       x2="32"
       y2="75.664101"
       gradientUnits="userSpaceOnUse">
      <stop
         stop-color="#1C6DFF"
         id="stop9" />
      <stop
         offset="1"
         stop-color="#C025FF"
         id="stop10" />
    </linearGradient>
  </defs>
</svg>
