<?xml version="1.0" encoding="UTF-8" standalone="no"?>
<svg
   width="20"
   height="18.664101"
   viewBox="0 0 20 18.664101"
   fill="none"
   version="1.1"
   id="svg10"
   xmlns="http://www.w3.org/2000/svg"
   xmlns:svg="http://www.w3.org/2000/svg">
  <rect
     y="-13"
     width="64"
     height="44"
     fill="#3b1969"
     id="rect3"
     x="-22"
     style="display:none" />
  <path
     d="m 3.3475,13.618 c 0.1297,0.13 0.2292,0.287 0.2912,0.46 0.062,0.173 0.0851,0.358 0.0675,0.541 -0.088,0.847 -0.2546,1.684 -0.4975,2.5 1.7438,-0.404 2.8088,-0.871 3.2926,-1.116 0.2743,-0.139 0.5903,-0.172 0.8874,-0.093 0.8517,0.228 1.7297,0.342 2.6113,0.34 4.995,0 8.75,-3.509 8.75,-7.5 0,-3.991 -3.755,-7.5 -8.75,-7.5 -4.995,0 -8.75,3.51 -8.75,7.5 0,1.835 0.7712,3.537 2.0975,4.868 z M 2.7312,18.499 C 2.4351,18.557 2.1379,18.611 1.84,18.66 1.59,18.7 1.4,18.44 1.4987,18.208 1.6094,17.946 1.7112,17.68 1.8037,17.411 L 1.8075,17.399 C 2.1175,16.499 2.37,15.464 2.4625,14.5 0.9288,12.963 0,10.95 0,8.75 0,3.918 4.4775,0 10,0 c 5.5225,0 10,3.918 10,8.75 0,4.833 -4.4775,8.75 -10,8.75 -0.9905,0.002 -1.9769,-0.126 -2.9338,-0.382 -0.65,0.328 -2.0487,0.927 -4.335,1.381 z"
     fill="#ffffff"
     id="path4" />
  <path
     d="m 3.3475,13.618 c 0.1297,0.13 0.2292,0.287 0.2912,0.46 0.062,0.173 0.0851,0.358 0.0675,0.541 -0.088,0.847 -0.2546,1.684 -0.4975,2.5 1.7438,-0.404 2.8088,-0.871 3.2926,-1.116 0.2743,-0.139 0.5903,-0.172 0.8874,-0.093 0.8517,0.228 1.7297,0.342 2.6113,0.34 4.995,0 8.75,-3.509 8.75,-7.5 0,-3.991 -3.755,-7.5 -8.75,-7.5 -4.995,0 -8.75,3.51 -8.75,7.5 0,1.835 0.7712,3.537 2.0975,4.868 z"
     fill="#ffffff"
     id="path5" />
  <defs
     id="defs10" />
</svg>
