<?xml version="1.0" encoding="UTF-8" standalone="no"?>
<svg
   width="19.894199"
   height="19.999878"
   viewBox="0 0 19.894199 19.999878"
   fill="none"
   version="1.1"
   id="svg6"
   xmlns="http://www.w3.org/2000/svg"
   xmlns:svg="http://www.w3.org/2000/svg">
  <rect
     y="-12.000122"
     width="64"
     height="44"
     fill="#3b1969"
     id="rect2"
     x="-22"
     style="display:none" />
  <path
     d="M 9.0245,0.26387793 0.6914,5.4448779 C 0.2617,5.7118779 0,6.1838779 0,6.6908779 V 18.912878 c 0,0.601 0.4864,1.087 1.0858,1.087 h 5.6656 c 0.2997,0 0.5429,-0.243 0.5429,-0.543 v -4.136 c 0,-1.47 1.183,-2.655 2.6524,-2.655 1.4702,0 2.6537,1.185 2.6537,2.655 v 4.136 c 0,0.3 0.2432,0.543 0.5429,0.543 h 5.665 c 0.5994,0 1.0859,-0.486 1.0859,-1.087 V 6.6908779 c 0,-0.507 -0.2617,-0.979 -0.6928,-1.246 L 10.8699,0.26387793 c -0.5855,-0.3658 -1.3052,-0.3376 -1.8454,0 z"
     fill="#ffffff"
     id="path3" />
  <defs
     id="defs6" />
</svg>
