<?xml version="1.0" encoding="UTF-8" standalone="no"?>
<svg
   width="19.894199"
   height="19.999981"
   viewBox="0 0 19.894199 19.999981"
   fill="none"
   version="1.1"
   id="svg6"
   xmlns="http://www.w3.org/2000/svg"
   xmlns:svg="http://www.w3.org/2000/svg">
  <g
     filter="url(#filter0_d_1_201)"
     id="g2"
     transform="translate(-22,-56.000019)">
    <path
       d="m 31.0245,56.2636 -8.3331,5.1815 C 22.2617,61.7125 22,62.184 22,62.6905 V 74.9131 C 22,75.5136 22.4864,76 23.0858,76 h 5.6656 c 0.2997,0 0.5429,-0.2432 0.5429,-0.5435 v -4.1356 c 0,-1.4702 1.183,-2.6551 2.6524,-2.6551 1.4702,0 2.6537,1.1849 2.6537,2.6551 v 4.1356 c 0,0.3003 0.2432,0.5435 0.5429,0.5435 h 5.665 c 0.5994,0 1.0859,-0.4864 1.0859,-1.0869 V 62.6905 c 0,-0.5065 -0.2617,-0.978 -0.6928,-1.2454 l -8.3315,-5.1815 c -0.5855,-0.3654 -1.3052,-0.3372 -1.8454,0 z"
       fill="url(#paint0_linear_1_201)"
       id="path2"
       style="fill:url(#paint0_linear_1_201)" />
  </g>
  <defs
     id="defs6">
    <filter
       id="filter0_d_1_201"
       x="18"
       y="54"
       width="27.894199"
       height="28"
       filterUnits="userSpaceOnUse"
       color-interpolation-filters="sRGB">
      <feFlood
         flood-opacity="0"
         result="BackgroundImageFix"
         id="feFlood3" />
      <feColorMatrix
         in="SourceAlpha"
         type="matrix"
         values="0 0 0 0 0 0 0 0 0 0 0 0 0 0 0 0 0 0 127 0"
         result="hardAlpha"
         id="feColorMatrix3" />
      <feOffset
         dy="2"
         id="feOffset3" />
      <feGaussianBlur
         stdDeviation="2"
         id="feGaussianBlur3" />
      <feComposite
         in2="hardAlpha"
         operator="out"
         id="feComposite3" />
      <feColorMatrix
         type="matrix"
         values="0 0 0 0 0.443137 0 0 0 0 0.223529 0 0 0 0 0.729412 0 0 0 0.22 0"
         id="feColorMatrix4" />
      <feBlend
         mode="normal"
         in2="BackgroundImageFix"
         result="effect1_dropShadow_1_201"
         id="feBlend4" />
      <feBlend
         mode="normal"
         in="SourceGraphic"
         in2="effect1_dropShadow_1_201"
         result="shape"
         id="feBlend5" />
    </filter>
    <linearGradient
       id="paint0_linear_1_201"
       x1="31.9471"
       y1="56"
       x2="31.9471"
       y2="76"
       gradientUnits="userSpaceOnUse">
      <stop
         stop-color="#1C6DFF"
         id="stop5" />
      <stop
         offset="1"
         stop-color="#C025FF"
         id="stop6" />
    </linearGradient>
  </defs>
</svg>
