<?xml version="1.0" encoding="UTF-8" standalone="no"?>
<svg
   width="19.894199"
   height="20.000683"
   viewBox="0 0 19.894199 20.000683"
   fill="none"
   version="1.1"
   id="svg6"
   xmlns="http://www.w3.org/2000/svg"
   xmlns:svg="http://www.w3.org/2000/svg">
  <path
     d="m 9.3942,0.85868283 0.001,-6e-4 c 0.3237,-0.2021 0.7555,-0.2175 1.1041,0 l 9e-4,6e-4 8.3315,5.18149997 7e-4,5e-4 c 0.2249,0.1394 0.3618,0.3857 0.3618,0.6505 V 18.913783 c 0,0.2143 -0.1735,0.3869 -0.3859,0.3869 h -5.5079 v -3.9791 c 0,-1.8563 -1.4965,-3.3551 -3.3537,-3.3551 -1.8568,0 -3.3524,1.4991 -3.3524,3.3551 v 3.9791 H 1.0858 c -0.2123,0 -0.3858,-0.1726 -0.3858,-0.3869 V 6.6911828 c 0,-0.265 0.1372,-0.5116 0.3612,-0.6511 z"
     stroke="#50595f"
     stroke-width="1.4"
     id="path1" />
  <defs
     id="defs6" />
</svg>
