<svg width="64" height="132" viewBox="0 0 64 132" fill="none" xmlns="http://www.w3.org/2000/svg">
<path d="M33.9136 32H30.7037C29.8395 32 29.0988 31.2749 29.0988 30.429V29.7644C28.358 29.5227 27.679 29.2205 27.0617 28.7976L26.321 29.2205C25.5802 29.6435 24.5309 29.4018 24.0988 28.6163L22.4938 25.8973C22.0617 25.1722 22.3086 24.2054 23.1111 23.7221L23.4815 23.4804C23.4198 23.0574 23.358 22.5136 23.358 22.0302C23.358 21.7281 23.358 21.4864 23.4198 21.1239L22.8025 20.7613C22.4321 20.5801 22.1852 20.2175 22.0617 19.7946C21.9383 19.3716 22 18.9486 22.2469 18.5861L23.8519 15.8671C24.284 15.142 25.2716 14.8399 26.0741 15.2628L26.5679 15.565C27.1852 15.0816 27.8025 14.719 28.5432 14.4169V13.571C28.5432 12.7251 29.284 12 30.1481 12H33.358C34.2222 12 34.963 12.7251 34.963 13.571V14.4169C35.5802 14.6586 36.1358 14.9607 36.6914 15.3837L37.7407 14.7795C38.4815 14.3565 39.4691 14.5982 39.963 15.3837L41.5679 18.1027C41.7531 18.4653 41.8148 18.8882 41.7531 19.3112C41.6914 19.7341 41.3827 20.0363 41.0123 20.2779L39.963 20.8218C40.0247 21.2447 40.0247 21.6073 40.0247 22.0302C40.0247 22.2115 40.0247 22.3927 40.0247 22.574L41.1975 23.2387C41.5679 23.4199 41.8148 23.7825 41.9383 24.2054C42.0617 24.6284 42 25.0514 41.7531 25.4139L40.1482 28.1329C39.7161 28.858 38.7284 29.1601 37.9259 28.7372L37.0617 28.2538C36.5679 28.6767 36.0123 29.0393 35.4568 29.3414V30.4894C35.5185 31.2749 34.7778 32 33.9136 32ZM27.0617 27.5287C27.2469 27.5287 27.4321 27.5891 27.5556 27.71C28.2346 28.1934 28.9136 28.4955 29.716 28.7372C30.0864 28.858 30.3333 29.1601 30.3333 29.5227V30.429C30.3333 30.6103 30.5185 30.7915 30.7037 30.7915H33.9136C34.0988 30.7915 34.284 30.6103 34.284 30.429V29.0393C34.284 28.7372 34.4691 28.435 34.7778 28.2538C35.3951 27.9517 36.0123 27.5891 36.5062 27.1057C36.7531 26.864 37.1852 26.8036 37.4938 26.9849L38.6049 27.5891C38.7901 27.71 39.037 27.6495 39.0988 27.4683L40.7037 24.7492C40.7654 24.6888 40.7654 24.568 40.7654 24.4471C40.7654 24.3263 40.7037 24.2659 40.5802 24.2054L39.2222 23.4199C38.9136 23.2387 38.7901 22.9366 38.7901 22.6344C38.7901 22.3927 38.8519 22.2115 38.8519 21.9698C38.8519 21.5468 38.7901 21.1239 38.7284 20.7009C38.6667 20.3384 38.8519 19.9758 39.1605 19.855L40.3333 19.1903C40.3951 19.1299 40.4568 19.0695 40.5185 18.9486C40.5802 18.8278 40.5185 18.7674 40.4568 18.6465L38.7901 16.0483C38.6667 15.8671 38.4815 15.8066 38.2963 15.9275L37 16.5921C36.6914 16.7734 36.321 16.713 36.0741 16.5317C35.5185 16.1088 34.9012 15.7462 34.2222 15.5045C33.9136 15.3837 33.6667 15.0816 33.6667 14.719V13.571C33.6667 13.3897 33.4815 13.2085 33.2963 13.2085H30.0864C29.9012 13.2085 29.716 13.3897 29.716 13.571V14.7795C29.716 15.142 29.4691 15.4441 29.1605 15.565C28.4198 15.8671 27.7407 16.2296 27.1235 16.7734C26.8765 17.0151 26.4444 17.0151 26.1358 16.8338L25.3951 16.4109C25.2099 16.29 24.963 16.3505 24.9012 16.5317L23.2963 19.2508C23.2346 19.3112 23.2346 19.432 23.2346 19.5529C23.2346 19.6737 23.2963 19.7341 23.4198 19.7946L24.2222 20.2779C24.5309 20.4592 24.716 20.7613 24.6543 21.1239C24.5926 21.426 24.5926 21.7281 24.5926 22.0302C24.5926 22.5136 24.6543 23.0574 24.7778 23.5408C24.8395 23.9033 24.716 24.2659 24.3457 24.4471L23.7284 24.8097C23.5432 24.9305 23.4815 25.1118 23.6049 25.2931L25.2099 28.0121C25.3333 28.1934 25.5185 28.2538 25.7037 28.1329L26.6296 27.5891C26.7531 27.5891 26.9383 27.5287 27.0617 27.5287ZM32 26.3202C29.5926 26.3202 27.6173 24.3867 27.6173 22.0302C27.6173 19.6737 29.5926 17.7402 32 17.7402C34.4074 17.7402 36.3827 19.6737 36.3827 22.0302C36.3827 24.3867 34.4074 26.3202 32 26.3202ZM32 18.9486C30.2716 18.9486 28.8519 20.3384 28.8519 22.0302C28.8519 23.7221 30.2716 25.1118 32 25.1118C33.7284 25.1118 35.1481 23.7221 35.1481 22.0302C35.1481 20.3384 33.7284 18.9486 32 18.9486Z" fill="#50595F"/>
<g filter="url(#filter0_d_2_72)">
<path d="M33.9136 77H30.7037C29.8395 77 29.0988 76.2749 29.0988 75.429V74.7644C28.358 74.5227 27.679 74.2205 27.0617 73.7976L26.321 74.2205C25.5802 74.6435 24.5309 74.4018 24.0988 73.6163L22.4938 70.8973C22.0617 70.1722 22.3086 69.2054 23.1111 68.7221L23.4815 68.4804C23.4198 68.0574 23.358 67.5136 23.358 67.0302C23.358 66.7281 23.358 66.4864 23.4198 66.1239L22.8025 65.7613C22.4321 65.5801 22.1852 65.2175 22.0617 64.7946C21.9383 64.3716 22 63.9486 22.2469 63.5861L23.8519 60.8671C24.284 60.142 25.2716 59.8399 26.0741 60.2628L26.5679 60.565C27.1852 60.0816 27.8025 59.719 28.5432 59.4169V58.571C28.5432 57.7251 29.284 57 30.1481 57H33.358C34.2222 57 34.963 57.7251 34.963 58.571V59.4169C35.5802 59.6586 36.1358 59.9607 36.6914 60.3837L37.7407 59.7795C38.4815 59.3565 39.4691 59.5982 39.963 60.3837L41.5679 63.1027C41.7531 63.4653 41.8148 63.8882 41.7531 64.3112C41.6914 64.7341 41.3827 65.0363 41.0123 65.2779L39.963 65.8218C40.0247 66.2447 40.0247 66.6073 40.0247 67.0302C40.0247 67.2115 40.0247 67.3927 40.0247 67.574L41.1975 68.2387C41.5679 68.4199 41.8148 68.7825 41.9383 69.2054C42.0617 69.6284 42 70.0514 41.7531 70.4139L40.1482 73.1329C39.7161 73.858 38.7284 74.1601 37.9259 73.7372L37.0617 73.2538C36.5679 73.6767 36.0123 74.0393 35.4568 74.3414V75.4894C35.5185 76.2749 34.7778 77 33.9136 77ZM27.0617 72.5287C27.2469 72.5287 27.4321 72.5891 27.5556 72.71C28.2346 73.1934 28.9136 73.4955 29.716 73.7372C30.0864 73.858 30.3333 74.1601 30.3333 74.5227V75.429C30.3333 75.6103 30.5185 75.7915 30.7037 75.7915H33.9136C34.0988 75.7915 34.284 75.6103 34.284 75.429V74.0393C34.284 73.7372 34.4691 73.435 34.7778 73.2538C35.3951 72.9517 36.0123 72.5891 36.5062 72.1057C36.7531 71.864 37.1852 71.8036 37.4938 71.9849L38.6049 72.5891C38.7901 72.71 39.037 72.6495 39.0988 72.4683L40.7037 69.7492C40.7654 69.6888 40.7654 69.568 40.7654 69.4471C40.7654 69.3263 40.7037 69.2659 40.5802 69.2054L39.2222 68.4199C38.9136 68.2387 38.7901 67.9366 38.7901 67.6344C38.7901 67.3927 38.8519 67.2115 38.8519 66.9698C38.8519 66.5468 38.7901 66.1239 38.7284 65.7009C38.6667 65.3384 38.8519 64.9758 39.1605 64.855L40.3333 64.1903C40.3951 64.1299 40.4568 64.0695 40.5185 63.9486C40.5802 63.8278 40.5185 63.7674 40.4568 63.6465L38.7901 61.0483C38.6667 60.8671 38.4815 60.8066 38.2963 60.9275L37 61.5921C36.6914 61.7734 36.321 61.713 36.0741 61.5317C35.5185 61.1088 34.9012 60.7462 34.2222 60.5045C33.9136 60.3837 33.6667 60.0816 33.6667 59.719V58.571C33.6667 58.3897 33.4815 58.2085 33.2963 58.2085H30.0864C29.9012 58.2085 29.716 58.3897 29.716 58.571V59.7795C29.716 60.142 29.4691 60.4441 29.1605 60.565C28.4198 60.8671 27.7407 61.2296 27.1235 61.7734C26.8765 62.0151 26.4444 62.0151 26.1358 61.8338L25.3951 61.4109C25.2099 61.29 24.963 61.3505 24.9012 61.5317L23.2963 64.2508C23.2346 64.3112 23.2346 64.432 23.2346 64.5529C23.2346 64.6737 23.2963 64.7341 23.4198 64.7946L24.2222 65.2779C24.5309 65.4592 24.716 65.7613 24.6543 66.1239C24.5926 66.426 24.5926 66.7281 24.5926 67.0302C24.5926 67.5136 24.6543 68.0574 24.7778 68.5408C24.8395 68.9033 24.716 69.2659 24.3457 69.4471L23.7284 69.8097C23.5432 69.9305 23.4815 70.1118 23.6049 70.2931L25.2099 73.0121C25.3333 73.1934 25.5185 73.2538 25.7037 73.1329L26.6296 72.5891C26.7531 72.5891 26.9383 72.5287 27.0617 72.5287ZM32 71.3202C29.5926 71.3202 27.6173 69.3867 27.6173 67.0302C27.6173 64.6737 29.5926 62.7402 32 62.7402C34.4074 62.7402 36.3827 64.6737 36.3827 67.0302C36.3827 69.3867 34.4074 71.3202 32 71.3202ZM32 63.9486C30.2716 63.9486 28.8519 65.3384 28.8519 67.0302C28.8519 68.7221 30.2716 70.1118 32 70.1118C33.7284 70.1118 35.1481 68.7221 35.1481 67.0302C35.1481 65.3384 33.7284 63.9486 32 63.9486Z" fill="url(#paint0_linear_2_72)"/>
</g>
<rect y="88" width="64" height="44" fill="#3B1969"/>
<path d="M33.9136 120H30.7037C29.8395 120 29.0988 119.275 29.0988 118.429V117.764C28.358 117.523 27.679 117.221 27.0617 116.798L26.321 117.221C25.5802 117.644 24.5309 117.402 24.0988 116.616L22.4938 113.897C22.0617 113.172 22.3086 112.205 23.1111 111.722L23.4815 111.48C23.4198 111.057 23.358 110.514 23.358 110.03C23.358 109.728 23.358 109.486 23.4198 109.124L22.8025 108.761C22.4321 108.58 22.1852 108.218 22.0617 107.795C21.9383 107.372 22 106.949 22.2469 106.586L23.8519 103.867C24.284 103.142 25.2716 102.84 26.0741 103.263L26.5679 103.565C27.1852 103.082 27.8025 102.719 28.5432 102.417V101.571C28.5432 100.725 29.284 100 30.1481 100H33.358C34.2222 100 34.963 100.725 34.963 101.571V102.417C35.5802 102.659 36.1358 102.961 36.6914 103.384L37.7407 102.779C38.4815 102.356 39.4691 102.598 39.963 103.384L41.5679 106.103C41.7531 106.465 41.8148 106.888 41.7531 107.311C41.6914 107.734 41.3827 108.036 41.0123 108.278L39.963 108.822C40.0247 109.245 40.0247 109.607 40.0247 110.03C40.0247 110.211 40.0247 110.393 40.0247 110.574L41.1975 111.239C41.5679 111.42 41.8148 111.782 41.9383 112.205C42.0617 112.628 42 113.051 41.7531 113.414L40.1482 116.133C39.7161 116.858 38.7284 117.16 37.9259 116.737L37.0617 116.254C36.5679 116.677 36.0123 117.039 35.4568 117.341V118.489C35.5185 119.275 34.7778 120 33.9136 120ZM27.0617 115.529C27.2469 115.529 27.4321 115.589 27.5556 115.71C28.2346 116.193 28.9136 116.495 29.716 116.737C30.0864 116.858 30.3333 117.16 30.3333 117.523V118.429C30.3333 118.61 30.5185 118.792 30.7037 118.792H33.9136C34.0988 118.792 34.284 118.61 34.284 118.429V117.039C34.284 116.737 34.4691 116.435 34.7778 116.254C35.3951 115.952 36.0123 115.589 36.5062 115.106C36.7531 114.864 37.1852 114.804 37.4938 114.985L38.6049 115.589C38.7901 115.71 39.037 115.65 39.0988 115.468L40.7037 112.749C40.7654 112.689 40.7654 112.568 40.7654 112.447C40.7654 112.326 40.7037 112.266 40.5802 112.205L39.2222 111.42C38.9136 111.239 38.7901 110.937 38.7901 110.634C38.7901 110.393 38.8519 110.211 38.8519 109.97C38.8519 109.547 38.7901 109.124 38.7284 108.701C38.6667 108.338 38.8519 107.976 39.1605 107.855L40.3333 107.19C40.3951 107.13 40.4568 107.069 40.5185 106.949C40.5802 106.828 40.5185 106.767 40.4568 106.647L38.7901 104.048C38.6667 103.867 38.4815 103.807 38.2963 103.927L37 104.592C36.6914 104.773 36.321 104.713 36.0741 104.532C35.5185 104.109 34.9012 103.746 34.2222 103.505C33.9136 103.384 33.6667 103.082 33.6667 102.719V101.571C33.6667 101.39 33.4815 101.208 33.2963 101.208H30.0864C29.9012 101.208 29.716 101.39 29.716 101.571V102.779C29.716 103.142 29.4691 103.444 29.1605 103.565C28.4198 103.867 27.7407 104.23 27.1235 104.773C26.8765 105.015 26.4444 105.015 26.1358 104.834L25.3951 104.411C25.2099 104.29 24.963 104.35 24.9012 104.532L23.2963 107.251C23.2346 107.311 23.2346 107.432 23.2346 107.553C23.2346 107.674 23.2963 107.734 23.4198 107.795L24.2222 108.278C24.5309 108.459 24.716 108.761 24.6543 109.124C24.5926 109.426 24.5926 109.728 24.5926 110.03C24.5926 110.514 24.6543 111.057 24.7778 111.541C24.8395 111.903 24.716 112.266 24.3457 112.447L23.7284 112.81C23.5432 112.931 23.4815 113.112 23.6049 113.293L25.2099 116.012C25.3333 116.193 25.5185 116.254 25.7037 116.133L26.6296 115.589C26.7531 115.589 26.9383 115.529 27.0617 115.529ZM32 114.32C29.5926 114.32 27.6173 112.387 27.6173 110.03C27.6173 107.674 29.5926 105.74 32 105.74C34.4074 105.74 36.3827 107.674 36.3827 110.03C36.3827 112.387 34.4074 114.32 32 114.32ZM32 106.949C30.2716 106.949 28.8519 108.338 28.8519 110.03C28.8519 111.722 30.2716 113.112 32 113.112C33.7284 113.112 35.1481 111.722 35.1481 110.03C35.1481 108.338 33.7284 106.949 32 106.949Z" fill="white"/>
<defs>
<filter id="filter0_d_2_72" x="18" y="55" width="28" height="28" filterUnits="userSpaceOnUse" color-interpolation-filters="sRGB">
<feFlood flood-opacity="0" result="BackgroundImageFix"/>
<feColorMatrix in="SourceAlpha" type="matrix" values="0 0 0 0 0 0 0 0 0 0 0 0 0 0 0 0 0 0 127 0" result="hardAlpha"/>
<feOffset dy="2"/>
<feGaussianBlur stdDeviation="2"/>
<feComposite in2="hardAlpha" operator="out"/>
<feColorMatrix type="matrix" values="0 0 0 0 0.443137 0 0 0 0 0.223529 0 0 0 0 0.729412 0 0 0 0.22 0"/>
<feBlend mode="normal" in2="BackgroundImageFix" result="effect1_dropShadow_2_72"/>
<feBlend mode="normal" in="SourceGraphic" in2="effect1_dropShadow_2_72" result="shape"/>
</filter>
<linearGradient id="paint0_linear_2_72" x1="32" y1="57" x2="32" y2="77" gradientUnits="userSpaceOnUse">
<stop stop-color="#1C6DFF"/>
<stop offset="1" stop-color="#C025FF"/>
</linearGradient>
</defs>
</svg>
