<?xml version="1.0" encoding="UTF-8" standalone="no"?>
<svg
   width="19.999992"
   height="20"
   viewBox="0 0 19.999992 20"
   fill="none"
   version="1.1"
   id="svg6"
   xmlns="http://www.w3.org/2000/svg"
   xmlns:svg="http://www.w3.org/2000/svg">
  <g
     filter="url(#filter0_d_2_72)"
     id="g2"
     transform="translate(-22.000004,-57)">
    <path
       d="m 33.9136,77 h -3.2099 c -0.8642,0 -1.6049,-0.7251 -1.6049,-1.571 V 74.7644 C 28.358,74.5227 27.679,74.2205 27.0617,73.7976 l -0.7407,0.4229 c -0.7408,0.423 -1.7901,0.1813 -2.2222,-0.6042 l -1.605,-2.719 c -0.4321,-0.7251 -0.1852,-1.6919 0.6173,-2.1752 l 0.3704,-0.2417 c -0.0617,-0.423 -0.1235,-0.9668 -0.1235,-1.4502 0,-0.3021 0,-0.5438 0.0618,-0.9063 L 22.8025,65.7613 C 22.4321,65.5801 22.1852,65.2175 22.0617,64.7946 21.9383,64.3716 22,63.9486 22.2469,63.5861 l 1.605,-2.719 c 0.4321,-0.7251 1.4197,-1.0272 2.2222,-0.6043 l 0.4938,0.3022 c 0.6173,-0.4834 1.2346,-0.846 1.9753,-1.1481 V 58.571 C 28.5432,57.7251 29.284,57 30.1481,57 h 3.2099 c 0.8642,0 1.605,0.7251 1.605,1.571 v 0.8459 c 0.6172,0.2417 1.1728,0.5438 1.7284,0.9668 l 1.0493,-0.6042 c 0.7408,-0.423 1.7284,-0.1813 2.2223,0.6042 l 1.6049,2.719 c 0.1852,0.3626 0.2469,0.7855 0.1852,1.2085 -0.0617,0.4229 -0.3704,0.7251 -0.7408,0.9667 l -1.0493,0.5439 c 0.0617,0.4229 0.0617,0.7855 0.0617,1.2084 0,0.1813 0,0.3625 0,0.5438 l 1.1728,0.6647 c 0.3704,0.1812 0.6173,0.5438 0.7408,0.9667 0.1234,0.423 0.0617,0.846 -0.1852,1.2085 l -1.6049,2.719 c -0.4321,0.7251 -1.4198,1.0272 -2.2223,0.6043 l -0.8642,-0.4834 c -0.4938,0.4229 -1.0494,0.7855 -1.6049,1.0876 v 1.148 C 35.5185,76.2749 34.7778,77 33.9136,77 Z m -6.8519,-4.4713 c 0.1852,0 0.3704,0.0604 0.4939,0.1813 0.679,0.4834 1.358,0.7855 2.1604,1.0272 0.3704,0.1208 0.6173,0.4229 0.6173,0.7855 v 0.9063 c 0,0.1813 0.1852,0.3625 0.3704,0.3625 h 3.2099 c 0.1852,0 0.3704,-0.1812 0.3704,-0.3625 v -1.3897 c 0,-0.3021 0.1851,-0.6043 0.4938,-0.7855 0.6173,-0.3021 1.2345,-0.6647 1.7284,-1.1481 0.2469,-0.2417 0.679,-0.3021 0.9876,-0.1208 l 1.1111,0.6042 c 0.1852,0.1209 0.4321,0.0604 0.4939,-0.1208 l 1.6049,-2.7191 c 0.0617,-0.0604 0.0617,-0.1812 0.0617,-0.3021 0,-0.1208 -0.0617,-0.1812 -0.1852,-0.2417 l -1.358,-0.7855 c -0.3086,-0.1812 -0.4321,-0.4833 -0.4321,-0.7855 0,-0.2417 0.0618,-0.4229 0.0618,-0.6646 0,-0.423 -0.0618,-0.8459 -0.1235,-1.2689 -0.0617,-0.3625 0.1235,-0.7251 0.4321,-0.8459 l 1.1728,-0.6647 c 0.0618,-0.0604 0.1235,-0.1208 0.1852,-0.2417 0.0617,-0.1208 0,-0.1812 -0.0617,-0.3021 L 38.7901,61.0483 C 38.6667,60.8671 38.4815,60.8066 38.2963,60.9275 L 37,61.5921 c -0.3086,0.1813 -0.679,0.1209 -0.9259,-0.0604 -0.5556,-0.4229 -1.1729,-0.7855 -1.8519,-1.0272 -0.3086,-0.1208 -0.5555,-0.4229 -0.5555,-0.7855 v -1.148 c 0,-0.1813 -0.1852,-0.3625 -0.3704,-0.3625 h -3.2099 c -0.1852,0 -0.3704,0.1812 -0.3704,0.3625 v 1.2085 c 0,0.3625 -0.2469,0.6646 -0.5555,0.7855 -0.7407,0.3021 -1.4198,0.6646 -2.037,1.2084 -0.247,0.2417 -0.6791,0.2417 -0.9877,0.0604 L 25.3951,61.4109 C 25.2099,61.29 24.963,61.3505 24.9012,61.5317 l -1.6049,2.7191 c -0.0617,0.0604 -0.0617,0.1812 -0.0617,0.3021 0,0.1208 0.0617,0.1812 0.1852,0.2417 l 0.8024,0.4833 c 0.3087,0.1813 0.4938,0.4834 0.4321,0.846 -0.0617,0.3021 -0.0617,0.6042 -0.0617,0.9063 0,0.4834 0.0617,1.0272 0.1852,1.5106 0.0617,0.3625 -0.0618,0.7251 -0.4321,0.9063 l -0.6173,0.3626 c -0.1852,0.1208 -0.2469,0.3021 -0.1235,0.4834 l 1.605,2.719 c 0.1234,0.1813 0.3086,0.2417 0.4938,0.1208 l 0.9259,-0.5438 c 0.1235,0 0.3087,-0.0604 0.4321,-0.0604 z M 32,71.3202 c -2.4074,0 -4.3827,-1.9335 -4.3827,-4.29 0,-2.3565 1.9753,-4.29 4.3827,-4.29 2.4074,0 4.3827,1.9335 4.3827,4.29 0,2.3565 -1.9753,4.29 -4.3827,4.29 z m 0,-7.3716 c -1.7284,0 -3.1481,1.3898 -3.1481,3.0816 0,1.6919 1.4197,3.0816 3.1481,3.0816 1.7284,0 3.1481,-1.3897 3.1481,-3.0816 0,-1.6918 -1.4197,-3.0816 -3.1481,-3.0816 z"
       fill="url(#paint0_linear_2_72)"
       id="path2"
       style="fill:url(#paint0_linear_2_72)" />
  </g>
  <defs
     id="defs6">
    <filter
       id="filter0_d_2_72"
       x="18"
       y="55"
       width="28"
       height="28"
       filterUnits="userSpaceOnUse"
       color-interpolation-filters="sRGB">
      <feFlood
         flood-opacity="0"
         result="BackgroundImageFix"
         id="feFlood3" />
      <feColorMatrix
         in="SourceAlpha"
         type="matrix"
         values="0 0 0 0 0 0 0 0 0 0 0 0 0 0 0 0 0 0 127 0"
         result="hardAlpha"
         id="feColorMatrix3" />
      <feOffset
         dy="2"
         id="feOffset3" />
      <feGaussianBlur
         stdDeviation="2"
         id="feGaussianBlur3" />
      <feComposite
         in2="hardAlpha"
         operator="out"
         id="feComposite3" />
      <feColorMatrix
         type="matrix"
         values="0 0 0 0 0.443137 0 0 0 0 0.223529 0 0 0 0 0.729412 0 0 0 0.22 0"
         id="feColorMatrix4" />
      <feBlend
         mode="normal"
         in2="BackgroundImageFix"
         result="effect1_dropShadow_2_72"
         id="feBlend4" />
      <feBlend
         mode="normal"
         in="SourceGraphic"
         in2="effect1_dropShadow_2_72"
         result="shape"
         id="feBlend5" />
    </filter>
    <linearGradient
       id="paint0_linear_2_72"
       x1="32"
       y1="57"
       x2="32"
       y2="77"
       gradientUnits="userSpaceOnUse">
      <stop
         stop-color="#1C6DFF"
         id="stop5" />
      <stop
         offset="1"
         stop-color="#C025FF"
         id="stop6" />
    </linearGradient>
  </defs>
</svg>
