<?xml version="1.0" encoding="UTF-8" standalone="no"?>
<svg
   width="19.999992"
   height="20"
   viewBox="0 0 19.999992 20"
   fill="none"
   version="1.1"
   id="svg6"
   xmlns="http://www.w3.org/2000/svg"
   xmlns:svg="http://www.w3.org/2000/svg">
  <rect
     y="-12"
     width="64"
     height="44"
     fill="#3b1969"
     id="rect2"
     x="-22.000004"
     style="display:none" />
  <path
     d="M 11.913596,20 H 8.7036962 c -0.8642,0 -1.6049,-0.725 -1.6049,-1.571 v -0.665 c -0.7408,-0.241 -1.4198,-0.543 -2.0371,-0.966 l -0.7407,0.423 c -0.7408,0.423 -1.7901,0.181 -2.2222,-0.605 L 0.49379619,13.897 c -0.4321,-0.725 -0.1852,-1.692 0.61730001,-2.175 l 0.3704,-0.242 c -0.0617,-0.423 -0.1235,-0.966 -0.1235,-1.45 0,-0.302 0,-0.544 0.0618,-0.906 L 0.80249619,8.761 c -0.3704,-0.181 -0.6173,-0.543 -0.7408,-0.966 -0.1234,-0.423 -0.061700004697,-0.846 0.1852,-1.209 L 1.8518962,3.867 c 0.4321,-0.725 1.4197,-1.027 2.2222,-0.604 l 0.4938,0.302 c 0.6173,-0.483 1.2346,-0.846 1.9753,-1.148 V 1.571 c 0,-0.846 0.7408,-1.571 1.6049,-1.571 h 3.2098998 c 0.8642,0 1.605,0.725 1.605,1.571 v 0.846 c 0.6172,0.242 1.1728,0.544 1.7284,0.967 l 1.0493,-0.605 c 0.7408,-0.423 1.7284,-0.181 2.2223,0.605 l 1.6049,2.719 c 0.1852,0.362 0.2469,0.785 0.1852,1.208 -0.0617,0.423 -0.3704,0.725 -0.7408,0.967 l -1.0493,0.544 c 0.0617,0.423 0.0617,0.785 0.0617,1.208 0,0.181 0,0.363 0,0.544 l 1.1728,0.665 c 0.3704,0.181 0.6173,0.543 0.7408,0.966 0.1234,0.423 0.0617,0.846 -0.1852,1.209 l -1.6049,2.719 c -0.4321,0.725 -1.4198,1.027 -2.2223,0.604 l -0.8642,-0.483 c -0.4938,0.423 -1.0494,0.785 -1.6049,1.087 v 1.148 c 0.0617,0.786 -0.679,1.511 -1.5432,1.511 z M 5.0616962,15.529 c 0.1852,0 0.3704,0.06 0.4939,0.181 0.679,0.483 1.358,0.785 2.1604,1.027 0.3704,0.121 0.6173,0.423 0.6173,0.786 v 0.906 c 0,0.181 0.1852,0.363 0.3704,0.363 h 3.2098998 c 0.1852,0 0.3704,-0.182 0.3704,-0.363 v -1.39 c 0,-0.302 0.1851,-0.604 0.4938,-0.785 0.6173,-0.302 1.2345,-0.665 1.7284,-1.148 0.2469,-0.242 0.679,-0.302 0.9876,-0.121 l 1.1111,0.604 c 0.1852,0.121 0.4321,0.061 0.4939,-0.121 l 1.6049,-2.719 c 0.0617,-0.06 0.0617,-0.181 0.0617,-0.302 0,-0.121 -0.0617,-0.181 -0.1852,-0.242 l -1.358,-0.785 c -0.3086,-0.181 -0.4321,-0.483 -0.4321,-0.786 0,-0.241 0.0618,-0.423 0.0618,-0.664 0,-0.423 -0.0618,-0.846 -0.1235,-1.269 -0.0617,-0.363 0.1235,-0.725 0.4321,-0.846 l 1.1728,-0.665 c 0.0618,-0.06 0.1235,-0.121 0.1852,-0.241 0.0617,-0.121 0,-0.182 -0.0617,-0.302 l -1.6667,-2.599 c -0.1234,-0.181 -0.3086,-0.241 -0.4938,-0.121 l -1.2963,0.665 c -0.3086,0.181 -0.679,0.121 -0.9259,-0.06 -0.5556,-0.423 -1.1729,-0.786 -1.8519,-1.027 -0.3086,-0.121 -0.5555,-0.423 -0.5555,-0.786 V 1.571 c 0,-0.181 -0.1852,-0.363 -0.3704,-0.363 H 8.0863962 c -0.1852,0 -0.3704,0.182 -0.3704,0.363 v 1.208 c 0,0.363 -0.2469,0.665 -0.5555,0.786 -0.7407,0.302 -1.4198,0.665 -2.037,1.208 -0.247,0.242 -0.6791,0.242 -0.9877,0.061 l -0.7407,-0.423 c -0.1852,-0.121 -0.4321,-0.061 -0.4939,0.121 l -1.6049,2.719 c -0.0617,0.06 -0.0617,0.181 -0.0617,0.302 0,0.121 0.0617,0.181 0.1852,0.242 l 0.8024,0.483 c 0.3087,0.181 0.4938,0.483 0.4321,0.846 -0.0617,0.302 -0.0617,0.604 -0.0617,0.906 0,0.484 0.0617,1.027 0.1852,1.511 0.0617,0.362 -0.0618,0.725 -0.4321,0.906 l -0.6173,0.363 c -0.1852,0.121 -0.2469,0.302 -0.1235,0.483 l 1.605,2.719 c 0.1234,0.181 0.3086,0.242 0.4938,0.121 l 0.9259,-0.544 c 0.1235,0 0.3087,-0.06 0.4321,-0.06 z m 4.9383,-1.209 c -2.4074,0 -4.3827,-1.933 -4.3827,-4.29 0,-2.356 1.9753,-4.29 4.3827,-4.29 2.4073998,0 4.3826998,1.934 4.3826998,4.29 0,2.357 -1.9753,4.29 -4.3826998,4.29 z m 0,-7.371 c -1.7284,0 -3.1481,1.389 -3.1481,3.081 0,1.692 1.4197,3.082 3.1481,3.082 1.7283998,0 3.1480998,-1.39 3.1480998,-3.082 0,-1.692 -1.4197,-3.081 -3.1480998,-3.081 z"
     fill="#ffffff"
     id="path3" />
  <defs
     id="defs6" />
</svg>
