<svg width="50" height="50" viewBox="0 0 50 50" fill="none" xmlns="http://www.w3.org/2000/svg">
<circle cx="25" cy="25" r="23.5" stroke="#338A17" stroke-width="3"/>
<rect x="5" y="5" width="40" height="40" rx="20" fill="url(#paint0_linear_270_349)"/>
<path d="M25.6336 18.048L28.5779 24.7851C28.5779 24.7851 27.5943 23.7751 26.8313 23.3129C26.2457 22.9581 25.2343 22.5893 25.2343 22.5893L24.1364 20.1689L22.2401 24.6043C22.2401 24.6043 20.8873 24.9785 20.194 25.4776C19.5085 25.9711 18.7717 27.0496 18.7717 27.0496L22.8888 17.7236C22.8888 17.7236 23.313 17 24.1364 17C25.2593 17.0937 25.6336 18.048 25.6336 18.048Z" fill="white" stroke="white" stroke-width="0.5"/>
<path d="M18.7716 26.9997L17 31.0669H19.3455L20.6181 28.2723C21.3579 27.0619 21.9432 26.7195 23.2879 26.7003C24.4599 26.8697 25.0416 27.1496 25.6834 28.6216C26.8206 30.6493 27.7064 31.0401 29.4761 31.1667C32.4454 31.1667 32.9494 28.6828 33.065 26.1667L32.8333 25.7501C32.363 24.8316 31.9174 24.6576 30.9982 24.5794V26.9997C30.8758 28.4889 30.4492 28.946 29.4761 28.946C28.3782 29.0063 28.3677 28.5468 27.2553 26.9997C25.8804 25.0875 24.8295 24.4643 22.1901 24.5794C20.6232 25.0141 19.8516 25.4934 18.7716 26.9997Z" fill="white" stroke="white" stroke-width="0.5"/>
<g filter="url(#filter0_d_270_349)">
<path d="M31.5124 22.535H29.1499C29.1499 23.4463 29.9194 24.5195 31.1074 24.4925C32.2954 24.4655 32.8849 25.5388 33.0649 26.0788C33.1099 26.0225 33.2434 25.64 33.1324 24.3913C32.8287 22.9738 32.0074 22.6475 31.5124 22.535Z" fill="white"/>
<path d="M31.5124 22.535H29.1499C29.1499 23.4463 29.9194 24.5195 31.1074 24.4925C32.2954 24.4655 32.8849 25.5388 33.0649 26.0788C33.1099 26.0225 33.2434 25.64 33.1324 24.3913C32.8287 22.9738 32.0074 22.6475 31.5124 22.535Z" stroke="white" stroke-width="0.4"/>
</g>
<circle cx="32.4167" cy="20.75" r="1" fill="white" stroke="white" stroke-width="0.5"/>
<defs>
<filter id="filter0_d_270_349" x="28.95" y="22.3351" width="4.42554" height="4.45576" filterUnits="userSpaceOnUse" color-interpolation-filters="sRGB">
<feFlood flood-opacity="0" result="BackgroundImageFix"/>
<feColorMatrix in="SourceAlpha" type="matrix" values="0 0 0 0 0 0 0 0 0 0 0 0 0 0 0 0 0 0 127 0" result="hardAlpha"/>
<feOffset dy="0.3"/>
<feComposite in2="hardAlpha" operator="out"/>
<feColorMatrix type="matrix" values="0 0 0 0 0 0 0 0 0 0 0 0 0 0 0 0 0 0 0.25 0"/>
<feBlend mode="normal" in2="BackgroundImageFix" result="effect1_dropShadow_270_349"/>
<feBlend mode="normal" in="SourceGraphic" in2="effect1_dropShadow_270_349" result="shape"/>
</filter>
<linearGradient id="paint0_linear_270_349" x1="25" y1="5" x2="25" y2="45" gradientUnits="userSpaceOnUse">
<stop stop-color="#1C6DFF"/>
<stop offset="1" stop-color="#C025FF"/>
</linearGradient>
</defs>
</svg>
