<svg width="24" height="24" viewBox="0 0 24 24" fill="none" xmlns="http://www.w3.org/2000/svg">
<path d="M3.87839 14.2641L3.87869 14.2638C4.15296 13.9895 4.52729 13.8219 4.93761 13.8219H8.45809C8.86842 13.8219 9.24274 13.9895 9.51702 14.2638C9.79048 14.5373 9.95834 14.9121 9.95834 15.3227V18.8432C9.95834 19.2539 9.79101 19.6281 9.51701 19.9021C9.24355 20.1756 8.86869 20.3434 8.45809 20.3434H4.93761C4.5269 20.3434 4.15268 20.1761 3.87869 19.9021L3.87839 19.9018C3.60457 19.6285 3.43675 19.2538 3.43675 18.8432V15.3227C3.43675 14.9122 3.60457 14.5374 3.87839 14.2641ZM20.1216 9.51672L20.1213 9.51701C19.847 9.79129 19.4727 9.95895 19.0624 9.95895H15.5419C15.1316 9.95895 14.7573 9.79129 14.483 9.51701C14.2095 9.24355 14.0417 8.86869 14.0417 8.45809V4.93761C14.0417 4.5269 14.209 4.15268 14.483 3.87869C14.7564 3.60522 15.1313 3.43737 15.5419 3.43737H19.0624C19.4731 3.43737 19.8473 3.60469 20.1213 3.87869L20.1216 3.87899C20.3954 4.15234 20.5632 4.52706 20.5632 4.93761V8.45809C20.5632 8.86865 20.3954 9.24336 20.1216 9.51672ZM5.26863 5.69987C5.26863 5.58329 5.31576 5.47613 5.39551 5.39621C5.47615 5.31601 5.58443 5.26863 5.69987 5.26863H7.69583C7.81258 5.26863 7.91988 5.3159 7.99984 5.39586C8.0798 5.47582 8.12707 5.58312 8.12707 5.69987V7.69583C8.12707 7.81258 8.0798 7.91988 7.99984 7.99984C7.9194 8.08028 7.81132 8.12769 7.69583 8.12769H5.69987C5.58394 8.12769 5.47643 8.08041 5.39586 7.99984C5.31603 7.92001 5.26863 7.81214 5.26863 7.69583V5.69987ZM16.0002 15.7804C16.08 15.7005 16.1879 15.6531 16.3042 15.6531H18.3001C18.4169 15.6531 18.5242 15.7004 18.6041 15.7804C18.684 15.8602 18.7314 15.9681 18.7314 16.0844V18.0803C18.7314 18.1971 18.6841 18.3044 18.6041 18.3843C18.5243 18.4642 18.4164 18.5116 18.3001 18.5116H16.3042C16.1874 18.5116 16.0801 18.4643 16.0002 18.3843C15.9203 18.3045 15.8729 18.1966 15.8729 18.0803V16.0844C15.8729 15.9676 15.9202 15.8603 16.0002 15.7804Z" stroke="#50595F"/>
</svg>
