<?xml version="1.0" encoding="UTF-8" standalone="no"?>
<svg
   width="20"
   height="18.760109"
   viewBox="0 0 20 18.760109"
   fill="none"
   version="1.1"
   id="svg10"
   xmlns="http://www.w3.org/2000/svg"
   xmlns:svg="http://www.w3.org/2000/svg">
  <path
     d="m 10.0005,16.75 c 5.2091,-3e-4 9.2495,-3.6748 9.2495,-8 0,-4.3254 -4.0406,-8 -9.25,-8 -5.2094,0 -9.25,3.6759 -9.25,8 0,1.9812 0.834,3.8071 2.2434,5.2206 0.0778,0.0781 0.1374,0.1724 0.1746,0.2761 0.037,0.1033 0.0509,0.2134 0.0407,0.3226 -0.0849,0.8154 -0.2453,1.6211 -0.4792,2.4068 L 2.4844,17.7997 3.3215,17.6059 C 5.1048,17.193 6.2078,16.7116 6.7272,16.4486 l -0.2209,-0.4361 0.2209,0.4361 c 0.1646,-0.0834 0.3542,-0.1032 0.5325,-0.0555 0.8939,0.2392 1.8155,0.3592 2.7408,0.3569 z m 0,0 c -10e-5,0 -3e-4,0 -5e-4,0 v -0.5 l 0.0013,0.5 c -3e-4,0 -5e-4,0 -8e-4,0 z m -6.2988,-3.4854 -1e-4,-2e-4 C 2.4585,12.0179 1.75,10.4388 1.75,8.75 c 0,-3.6559 3.4694,-7 8.25,-7 4.7806,0 8.25,3.3429 8.25,7 0,3.6571 -3.4694,7 -8.25,7 H 9.9987 C 9.1612,15.7522 8.3271,15.6435 7.518,15.427 l -2e-4,-10e-5 C 7.1018,15.3158 6.6595,15.3619 6.2753,15.5564 5.9037,15.7447 5.1336,16.0889 3.9092,16.426 4.0438,15.8478 4.1421,15.2615 4.2036,14.6705 v 0 l 4e-4,-0.0041 C 4.2285,14.4102 4.1962,14.1517 4.1094,13.9094 4.0226,13.6671 3.8834,13.447 3.7017,13.2646 Z m -1.4252,4.3095 0.0033,-0.0095 0.0029,-0.0097 8e-4,-0.0029 c 0.3184,-0.9263 0.58,-1.9965 0.6767,-3.0042 L 2.9827,14.3135 2.8165,14.1469 C 1.3659,12.6928 0.5,10.8037 0.5,8.75 0.5,4.2543 4.6888,0.5 10,0.5 c 5.3112,0 9.5,3.7543 9.5,8.25 C 19.5,13.2457 15.3112,17 10,17 H 9.9989 C 9.0524,17.0021 8.1098,16.8792 7.1955,16.6345 L 7.011,16.5851 6.8406,16.6713 c -0.6097,0.3084 -1.9653,0.8922 -4.2067,1.337 -0.185,0.0366 -0.3704,0.0713 -0.5562,0.1041 0.0702,-0.178 0.1365,-0.3574 0.1988,-0.5383 z"
     stroke="#50595f"
     id="path1" />
  <defs
     id="defs10" />
</svg>
