<?xml version="1.0" encoding="UTF-8" standalone="no"?>
<svg
   width="20"
   height="20"
   viewBox="0 0 20 20"
   fill="none"
   version="1.1"
   id="svg12"
   xmlns="http://www.w3.org/2000/svg"
   xmlns:svg="http://www.w3.org/2000/svg">
  <circle
     cx="10"
     cy="10"
     r="9.25"
     stroke="#50595f"
     stroke-width="1.5"
     id="circle1" />
  <mask
     id="path-2-inside-1_1_109"
     fill="#ffffff">
    <path
       fill-rule="evenodd"
       clip-rule="evenodd"
       d="m 31.0908,16.2133 v 6.3463 c 0,0.2025 0.1195,0.3905 0.3156,0.4944 l 4.156,2.5 c 0.3072,0.1639 0.7065,0.0756 0.8903,-0.1978 0.1844,-0.2729 0.0851,-0.6277 -0.2227,-0.791 L 32.3896,22.233 v -6.0197 c 0,-0.3185 -0.2909,-0.5769 -0.6494,-0.5769 -0.3585,0 -0.6494,0.2584 -0.6494,0.5769 z"
       id="path1" />
  </mask>
  <path
     fill-rule="evenodd"
     clip-rule="evenodd"
     d="m 9.0908,4.2133 v 6.3463 c 0,0.2025 0.1195,0.3905 0.3156,0.4944 l 4.156,2.5 c 0.3072,0.1639 0.7065,0.0756 0.8903,-0.1978 0.1844,-0.2729 0.0851,-0.6277 -0.2227,-0.791 L 10.3896,10.233 V 4.2133 c 0,-0.3185 -0.2909,-0.5769 -0.6494,-0.5769 -0.3585,0 -0.6494,0.2584 -0.6494,0.5769 z"
     fill="#50595f"
     id="path2" />
  <path
     d="m 31.4064,23.054 0.7732,-1.2854 -0.0351,-0.0211 -0.0361,-0.0191 z m 4.156,2.5 -0.7732,1.2854 0.0331,0.0199 0.0341,0.0182 z m 0.8903,-0.1978 -1.2428,-0.8399 -0.0022,0.0032 z m -0.2227,-0.791 -0.7786,1.2821 0.0372,0.0226 0.0385,0.0204 z M 32.3896,22.233 h -1.5 v 0.844 l 0.7214,0.4381 z m -2.7988,-6.0197 v 6.3463 h 3 v -6.3463 z m 0,6.3463 c 0,0.8165 0.4805,1.4847 1.1137,1.82 l 1.4039,-2.6512 c 0.2409,0.1276 0.4824,0.4196 0.4824,0.8312 z m 1.0424,1.7798 4.156,2.5 1.5464,-2.5707 -4.156,-2.5001 z m 4.2232,2.5381 c 0.9229,0.4923 2.1895,0.2852 2.8413,-0.6847 l -2.49,-1.6733 c 0.1499,-0.2231 0.3567,-0.3283 0.5212,-0.3648 0.1653,-0.0367 0.3572,-0.0214 0.5395,0.0759 z m 2.8391,-0.6814 c 0.7326,-1.0841 0.2535,-2.4171 -0.7626,-2.956 l -1.4058,2.6502 c -0.1902,-0.1009 -0.369,-0.2937 -0.4452,-0.5648 -0.0778,-0.2766 -0.0296,-0.5761 0.128,-0.8092 z m -0.6869,-2.913 -3.8404,-2.3322 -1.5572,2.5642 3.8404,2.3322 z m -3.119,-1.0501 v -6.0197 h -3 v 6.0197 z m 0,-6.0197 c 0,-1.3088 -1.1342,-2.0769 -2.1494,-2.0769 v 3 c -0.2983,0 -0.8506,-0.2513 -0.8506,-0.9231 z m -2.1494,-2.0769 c -1.0152,0 -2.1494,0.7681 -2.1494,2.0769 h 3 c 0,0.6718 -0.5523,0.9231 -0.8506,0.9231 z"
     fill="#50595f"
     mask="url(#path-2-inside-1_1_109)"
     id="path3"
     transform="translate(-22,-12)" />
  <defs
     id="defs12" />
</svg>
