<?xml version="1.0" encoding="UTF-8" standalone="no"?>
<svg
   width="20"
   height="20"
   viewBox="0 0 20 20"
   fill="none"
   version="1.1"
   id="svg12"
   xmlns="http://www.w3.org/2000/svg"
   xmlns:svg="http://www.w3.org/2000/svg">
  <mask
     id="path-2-inside-1_1_109"
     fill="#ffffff">
    <path
       fill-rule="evenodd"
       clip-rule="evenodd"
       d="m 31.0908,16.2133 v 6.3463 c 0,0.2025 0.1195,0.3905 0.3156,0.4944 l 4.156,2.5 c 0.3072,0.1639 0.7065,0.0756 0.8903,-0.1978 0.1844,-0.2729 0.0851,-0.6277 -0.2227,-0.791 L 32.3896,22.233 v -6.0197 c 0,-0.3185 -0.2909,-0.5769 -0.6494,-0.5769 -0.3585,0 -0.6494,0.2584 -0.6494,0.5769 z"
       id="path1" />
  </mask>
  <g
     filter="url(#filter0_d_1_109)"
     id="g4"
     transform="translate(-22,-56)">
    <circle
       cx="32"
       cy="66"
       r="9.5"
       fill="#ffffff"
       stroke="url(#paint0_linear_1_109)"
       id="circle3"
       style="stroke:url(#paint0_linear_1_109)" />
    <path
       d="m 31.6642,66.6255 -0.0117,-0.007 -0.0121,-0.0064 C 31.6156,66.599 31.6026,66.5843 31.5967,66.575 31.591,66.566 31.5908,66.561 31.5908,66.5596 v -6.3463 c 0,0 0,0 0,0 0,-10e-4 -4e-4,-0.0139 0.0224,-0.0341 0.0241,-0.0214 0.0676,-0.0428 0.127,-0.0428 0.0594,0 0.1029,0.0214 0.127,0.0428 0.0228,0.0202 0.0224,0.0331 0.0224,0.0341 0,0 0,0 0,0 v 6.0197 0.2814 l 0.2405,0.146 3.8403,2.3321 0.0125,0.0076 0.0128,0.0068 c 0.0392,0.0208 0.0474,0.0429 0.0489,0.048 9e-4,0.0034 8e-4,0.0055 6e-4,0.0069 -2e-4,0.0011 -0.001,0.0058 -0.0068,0.0144 l -7e-4,0.0011 c -0.0113,0.0168 -0.0395,0.042 -0.0922,0.0537 -0.0491,0.0109 -0.0995,0.0049 -0.1399,-0.0142 z"
       fill="#ffffff"
       stroke="url(#paint1_linear_1_109)"
       id="path4"
       style="stroke:url(#paint1_linear_1_109)" />
  </g>
  <defs
     id="defs12">
    <filter
       id="filter0_d_1_109"
       x="18"
       y="54"
       width="28"
       height="28"
       filterUnits="userSpaceOnUse"
       color-interpolation-filters="sRGB">
      <feFlood
         flood-opacity="0"
         result="BackgroundImageFix"
         id="feFlood5" />
      <feColorMatrix
         in="SourceAlpha"
         type="matrix"
         values="0 0 0 0 0 0 0 0 0 0 0 0 0 0 0 0 0 0 127 0"
         result="hardAlpha"
         id="feColorMatrix5" />
      <feOffset
         dy="2"
         id="feOffset5" />
      <feGaussianBlur
         stdDeviation="2"
         id="feGaussianBlur5" />
      <feComposite
         in2="hardAlpha"
         operator="out"
         id="feComposite5" />
      <feColorMatrix
         type="matrix"
         values="0 0 0 0 0.443137 0 0 0 0 0.223529 0 0 0 0 0.729412 0 0 0 0.22 0"
         id="feColorMatrix6" />
      <feBlend
         mode="normal"
         in2="BackgroundImageFix"
         result="effect1_dropShadow_1_109"
         id="feBlend6" />
      <feBlend
         mode="normal"
         in="SourceGraphic"
         in2="effect1_dropShadow_1_109"
         result="shape"
         id="feBlend7" />
    </filter>
    <linearGradient
       id="paint0_linear_1_109"
       x1="32"
       y1="56"
       x2="32"
       y2="76"
       gradientUnits="userSpaceOnUse">
      <stop
         stop-color="#1C6DFF"
         id="stop7" />
      <stop
         offset="1"
         stop-color="#C025FF"
         id="stop8" />
    </linearGradient>
    <linearGradient
       id="paint1_linear_1_109"
       x1="33.8181"
       y1="56.5"
       x2="33.8181"
       y2="75.5"
       gradientUnits="userSpaceOnUse">
      <stop
         stop-color="#1C6DFF"
         id="stop9" />
      <stop
         offset="1"
         stop-color="#C025FF"
         id="stop10" />
    </linearGradient>
  </defs>
</svg>
