<svg width="20" height="20" viewBox="0 0 20 20" fill="none" xmlns="http://www.w3.org/2000/svg">
<path d="M12.6617 1.48148L16.3047 1.48148C17.6114 1.48148 18.6767 2.67407 18.6767 4.14074L18.6767 15.8593C18.6767 17.3259 17.6114 18.5185 16.3047 18.5185L12.6617 18.5185C12.2977 18.5185 12 18.8519 12 19.2593C12 19.6667 12.2977 20 12.6617 20L16.3047 20C18.3426 20 20 18.1444 20 15.8593L20 4.13704C20 1.85555 18.3426 -1.44898e-07 16.3047 -3.23057e-07L12.6617 -6.41539e-07C12.2977 -6.73353e-07 12 0.333333 12 0.740741C12 1.14815 12.2977 1.48148 12.6617 1.48148Z" fill="#AF2007"/>
<path d="M5.07103 15.7935C5.34701 16.0688 5.79635 16.0688 6.07233 15.7935C6.3483 15.5182 6.3483 15.0699 6.07233 14.7945L1.97163 10.7069L13.2924 10.7069C13.6816 10.7069 14 10.3892 14 10.0009C14 9.61259 13.6816 9.2949 13.2924 9.2949L1.97163 9.2949L6.06879 5.20371C6.34476 4.92837 6.34476 4.48007 6.06879 4.20474C5.9308 4.0706 5.75036 4 5.56991 4C5.38947 4 5.20902 4.0706 5.07104 4.20826L0.517453 8.75129C-0.172484 9.43962 -0.172484 10.5621 0.517453 11.254L5.07103 15.7935Z" fill="#AF2007"/>
</svg>
