<svg width="24" height="27" viewBox="0 0 24 27" fill="none" xmlns="http://www.w3.org/2000/svg">
<path d="M23.5 6.09975V6.10314V18.3162C23.5 19.7709 22.3617 20.9265 21.0945 20.9265H9.49648C8.2274 20.9265 7.091 19.7729 7.091 18.3162V3.11035C7.091 1.65362 8.2274 0.500064 9.49648 0.500064H18.2988V0.500079L18.3027 0.500049C18.7555 0.496529 19.1985 0.684301 19.5332 1.03454C19.5338 1.03511 19.5343 1.03568 19.5349 1.03625L22.9855 4.73008C22.986 4.73067 22.9866 4.73127 22.9871 4.73186C23.3158 5.09187 23.5035 5.58304 23.5 6.09975Z" fill="#F5F5F5" stroke="#838688"/>
<path d="M20.2044 8.77809V8.78148V20.9945C20.2044 22.4493 19.0662 23.6048 17.7989 23.6048H6.20095C4.93187 23.6048 3.79547 22.4513 3.79547 20.9945V5.7887C3.79547 4.33196 4.93187 3.17841 6.20095 3.17841H15.0032V3.17842L15.0071 3.17839C15.46 3.17487 15.903 3.36265 16.2377 3.71288C16.2383 3.71345 16.2388 3.71402 16.2393 3.71459L19.6899 7.40842C19.6905 7.40902 19.691 7.40961 19.6916 7.41021C20.0202 7.77021 20.2079 8.26139 20.2044 8.77809Z" fill="#FBFBFB" stroke="#838688"/>
<path d="M16.909 11.4564V11.4598V23.6729C16.909 25.1276 15.7707 26.2832 14.5035 26.2832H2.90548C1.6364 26.2832 0.5 25.1296 0.5 23.6729V8.46704C0.5 7.01031 1.6364 5.85675 2.90548 5.85675H11.7078V5.85677L11.7116 5.85674C12.1645 5.85322 12.6075 6.04099 12.9422 6.39123C12.9428 6.3918 12.9433 6.39237 12.9439 6.39294L16.3945 10.0868C16.395 10.0874 16.3956 10.088 16.3961 10.0886C16.7248 10.4486 16.9125 10.9397 16.909 11.4564Z" fill="#FBFBFB" stroke="#838688"/>
</svg>
