<svg width="50" height="50" viewBox="0 0 50 50" fill="none" xmlns="http://www.w3.org/2000/svg">
<rect x="5" y="5" width="40" height="40" rx="20" fill="url(#paint0_linear_270_235)"/>
<path d="M32.3536 21.8207C32.18 21.7742 31.9631 21.7276 31.7896 21.7276C31.0087 18.4214 28.2321 16 24.8915 16C21.6811 16 18.9913 18.4214 18.167 21.7276C17.9935 21.7276 17.82 21.7276 17.6464 21.8207C16.8221 22.1001 16.1714 22.6589 15.6508 23.4505C14.7831 24.8009 14.7831 26.6636 15.6508 28.0605C16.128 28.8522 16.8221 29.4109 17.6464 29.6903C17.7766 29.7369 17.9501 29.7835 18.0803 29.7835C18.5141 33.6019 19.8156 35.0454 23.8503 35.2782C23.8937 35.3714 23.9805 35.4645 24.0239 35.5111C24.6312 36.163 25.6291 36.163 26.2798 35.5111C26.8872 34.8591 26.8872 33.7881 26.2798 33.0896C25.6725 32.4377 24.6746 32.4377 24.0239 33.0896C23.9805 33.1362 23.8937 33.2293 23.8503 33.3225C20.7267 33.2293 19.9458 32.5308 19.7722 27.0827V23.4505C19.7722 23.404 19.7722 23.3574 19.7722 23.3108C19.9892 20.2841 22.2017 17.9558 24.8915 17.9558C27.7983 17.9558 30.1844 20.5169 30.1844 23.6368C30.1844 23.7299 30.1844 23.8231 30.2278 23.9162V28.014C30.2278 28.5728 30.4881 29.085 30.8785 29.4109C31.1388 29.6438 31.4859 29.7369 31.833 29.7369C32.0065 29.7369 32.18 29.6903 32.3536 29.6438C33.1779 29.3644 33.8286 28.8056 34.3492 28.014C35.2169 26.6636 35.2169 24.8009 34.3492 23.404C33.872 22.6589 33.1779 22.1001 32.3536 21.8207ZM17.9935 23.7765V27.6414C17.6898 27.4552 17.4295 27.2224 17.2126 26.8964C16.7787 26.1979 16.7787 25.22 17.2126 24.475C17.3861 24.1956 17.6898 23.9627 17.9935 23.7765ZM32.8308 26.943C32.6139 27.2689 32.3536 27.5017 32.0499 27.688V23.823C32.3536 24.0093 32.6139 24.2421 32.8308 24.5681C33.308 25.22 33.308 26.2445 32.8308 26.943Z" fill="white"/>
<defs>
<linearGradient id="paint0_linear_270_235" x1="25" y1="5" x2="25" y2="45" gradientUnits="userSpaceOnUse">
<stop stop-color="#1C6DFF"/>
<stop offset="1" stop-color="#C025FF"/>
</linearGradient>
</defs>
</svg>
