<svg width="26" height="28" viewBox="0 0 26 28" fill="none" xmlns="http://www.w3.org/2000/svg">
<path d="M15.4572 2.93478C15.4572 4.34488 14.3471 5.46956 13.0001 5.46956C11.6531 5.46956 10.5429 4.34488 10.5429 2.93478C10.5429 1.52468 11.6531 0.4 13.0001 0.4C14.3471 0.4 15.4572 1.52468 15.4572 2.93478Z" stroke="#838688" stroke-width="0.8"/>
<path d="M7.45721 4.69573C7.45721 5.78166 6.6029 6.64355 5.57149 6.64355C4.54007 6.64355 3.68577 5.78166 3.68577 4.69573C3.68577 3.6098 4.54007 2.7479 5.57149 2.7479C6.6029 2.7479 7.45721 3.6098 7.45721 4.69573Z" stroke="#838688" stroke-width="0.8"/>
<path d="M22.3143 4.69573C22.3143 5.78166 21.46 6.64355 20.4286 6.64355C19.3972 6.64355 18.5429 5.78166 18.5429 4.69573C18.5429 3.6098 19.3972 2.7479 20.4286 2.7479C21.46 2.7479 22.3143 3.6098 22.3143 4.69573Z" stroke="#838688" stroke-width="0.8"/>
<path d="M17.1527 18.4293C17.7596 18.095 18.1429 17.4871 18.1429 16.8185V10.041C18.1429 9.03801 17.2804 8.21741 16.2263 8.21741H9.77377C8.71965 8.21741 7.85718 9.03801 7.85718 10.041V16.8489C7.85718 17.5175 8.2405 18.1254 8.84742 18.4597L9.13491 18.6117C9.55017 18.8244 9.80572 19.2195 9.80572 19.6754V25.1765C9.80572 26.1794 10.6682 27 11.7223 27H14.2778C15.3319 27 16.1944 26.1794 16.1944 25.1765V19.645C16.1944 19.1891 16.4499 18.794 16.8652 18.5813L17.1527 18.4293ZM16.5458 18.0646C15.9388 18.3989 15.5555 19.0068 15.5555 19.6754V25.1765C15.5555 25.8451 14.9805 26.3922 14.2778 26.3922H11.7223C11.0196 26.3922 10.4446 25.8451 10.4446 25.1765V19.645C10.4446 18.9764 10.0613 18.3685 9.45434 18.0342L9.16685 17.9126C8.75159 17.6999 8.49604 17.3048 8.49604 16.8489V10.041C8.49604 9.37232 9.07102 8.82526 9.77377 8.82526H16.2263C16.9291 8.82526 17.504 9.37232 17.504 10.041V16.8489C17.504 17.3048 17.2485 17.6999 16.8332 17.9126L16.5458 18.0646Z" fill="#838688" stroke="#838688" stroke-width="0.3"/>
<path d="M25 17.5934V11.2207C25 10.2145 24.1468 9.39124 23.1041 9.39124H20.0705C19.8809 9.39124 19.7545 9.5132 19.7545 9.69615C19.7545 9.8791 19.8809 10.0011 20.0705 10.0011H23.1041C23.7992 10.0011 24.368 10.5499 24.368 11.2207V17.4104L22.5985 18.3252C22.5037 18.3862 22.4405 18.4776 22.4405 18.5996V23.9965C22.4405 24.6673 21.8717 25.2162 21.1765 25.2162H18.4589C18.2693 25.2162 18.1429 25.3382 18.1429 25.5211C18.1429 25.7041 18.2693 25.826 18.4589 25.826H21.1765C22.2193 25.826 23.0725 25.0028 23.0725 23.9965V18.7825L24.842 17.8678C24.9368 17.8068 25 17.7153 25 17.5934Z" fill="#838688" stroke="#838688" stroke-width="0.3"/>
<path d="M1.97959 18.3086L2.26399 18.4608C2.67479 18.6738 2.92759 19.0695 2.92759 19.526V23.9999C2.92759 25.0043 3.78078 25.826 4.82358 25.826H7.54116C7.73076 25.826 7.85716 25.7043 7.85716 25.5217C7.85716 25.3391 7.73076 25.2173 7.54116 25.2173H4.82358C4.12838 25.2173 3.55958 24.6695 3.55958 23.9999V19.526C3.55958 18.8565 3.18039 18.2478 2.57999 17.913L2.29559 17.7608C1.88479 17.5478 1.632 17.1521 1.632 16.6956V11.2173C1.632 10.5478 2.20079 9.99993 2.89599 9.99993H5.92957C6.11917 9.99993 6.24557 9.87819 6.24557 9.69558C6.24557 9.51297 6.11917 9.39124 5.92957 9.39124H2.89599C1.85319 9.39124 1 10.213 1 11.2173V16.6956C1 17.3651 1.3792 17.9738 1.97959 18.3086Z" fill="#838688" stroke="#838688" stroke-width="0.3"/>
</svg>
