<svg width="50" height="26" viewBox="0 0 50 26" fill="none" xmlns="http://www.w3.org/2000/svg">
<path d="M35.595 6.94666C35.9972 6.94666 36.3233 6.62057 36.3233 6.21832C36.3233 5.81608 35.9972 5.48999 35.595 5.48999C35.1927 5.48999 34.8666 5.81608 34.8666 6.21832C34.8666 6.62057 35.1927 6.94666 35.595 6.94666Z" fill="white"/>
<path d="M41.22 10.4342C41.8906 10.4342 42.4342 9.89059 42.4342 9.22003C42.4342 8.54946 41.8906 8.00586 41.22 8.00586C40.5495 8.00586 40.0059 8.54946 40.0059 9.22003C40.0059 9.89059 40.5495 10.4342 41.22 10.4342Z" fill="white"/>
<path d="M35.595 20.51C35.9972 20.51 36.3233 20.1839 36.3233 19.7817C36.3233 19.3794 35.9972 19.0533 35.595 19.0533C35.1927 19.0533 34.8666 19.3794 34.8666 19.7817C34.8666 20.1839 35.1927 20.51 35.595 20.51Z" fill="white"/>
<path d="M41.22 17.9941C41.8906 17.9941 42.4342 17.4505 42.4342 16.78C42.4342 16.1094 41.8906 15.5658 41.22 15.5658C40.5495 15.5658 40.0059 16.1094 40.0059 16.78C40.0059 17.4505 40.5495 17.9941 41.22 17.9941Z" fill="white"/>
<path d="M39.475 7.15332C39.4277 7.32953 39.3293 7.48778 39.1921 7.60806C39.055 7.72834 38.8852 7.80525 38.7043 7.82906C38.5234 7.85286 38.3396 7.8225 38.1759 7.74181C38.0123 7.66113 37.8763 7.53373 37.7851 7.37574C37.6938 7.21775 37.6515 7.03626 37.6634 6.85421C37.6753 6.67216 37.7409 6.49773 37.852 6.35298C37.963 6.20822 38.1145 6.09964 38.2872 6.04096C38.46 5.98228 38.6462 5.97614 38.8225 6.02332C38.9395 6.05465 39.0493 6.10874 39.1454 6.18249C39.2416 6.25624 39.3222 6.34821 39.3828 6.45314C39.4434 6.55808 39.4827 6.67392 39.4986 6.79406C39.5144 6.9142 39.5064 7.03628 39.475 7.15332Z" fill="white"/>
<path d="M39.475 19.3234C39.4277 19.4996 39.3293 19.6578 39.1921 19.7781C39.055 19.8984 38.8852 19.9753 38.7043 19.9991C38.5234 20.0229 38.3396 19.9925 38.1759 19.9119C38.0123 19.8312 37.8763 19.7038 37.7851 19.5458C37.6938 19.3878 37.6515 19.2063 37.6634 19.0243C37.6753 18.8422 37.7409 18.6678 37.852 18.523C37.963 18.3783 38.1145 18.2697 38.2872 18.211C38.46 18.1523 38.6462 18.1462 38.8225 18.1934C39.0588 18.2568 39.2602 18.4115 39.3825 18.6234C39.5049 18.8352 39.5381 19.087 39.475 19.3234Z" fill="white"/>
<path d="M43.7029 13.3743C43.9054 12.6385 43.4732 11.878 42.7375 11.6755C42.0018 11.4729 41.2412 11.9052 41.0387 12.6409C40.8362 13.3766 41.2684 14.1372 42.0041 14.3397C42.7398 14.5422 43.5004 14.11 43.7029 13.3743Z" fill="white"/>
<path d="M17.1767 9.96254H18.76V16.015H17.1767V9.96254ZM18.1392 7.25754C17.9653 7.21107 17.7815 7.2172 17.6111 7.27516C17.4408 7.33312 17.2914 7.44031 17.1819 7.58316C17.0724 7.72602 17.0078 7.89813 16.9961 8.07773C16.9845 8.25733 17.0263 8.43635 17.1164 8.59216C17.2065 8.74797 17.3407 8.87357 17.5022 8.95308C17.6637 9.03259 17.8451 9.06243 18.0235 9.03883C18.2019 9.01523 18.3694 8.93926 18.5046 8.82051C18.6399 8.70176 18.7368 8.54558 18.7833 8.37171C18.8142 8.25625 18.822 8.13585 18.8063 8.01737C18.7907 7.8989 18.7518 7.78467 18.692 7.68121C18.6322 7.57775 18.5526 7.48708 18.4577 7.41439C18.3629 7.34169 18.2546 7.2884 18.1392 7.25754ZM23.6092 16.1384C23.228 16.1435 22.85 16.0679 22.5 15.9167C22.1805 15.7793 21.9051 15.5564 21.7042 15.2725V19.03H20.1667V9.96254H21.6908V10.8034C21.8923 10.5047 22.1661 10.2619 22.4867 10.0975C22.8299 9.92175 23.2111 9.83304 23.5967 9.83921C23.9736 9.83875 24.3469 9.91295 24.695 10.0575C25.0449 10.203 25.3614 10.4186 25.625 10.6909C25.9017 10.9799 26.1204 11.3194 26.2692 11.6909C26.4344 12.1041 26.5163 12.5459 26.51 12.9909C26.5176 13.4383 26.4339 13.8826 26.2642 14.2967C26.1106 14.6648 25.8899 15.001 25.6133 15.2884C25.3532 15.5577 25.0416 15.7719 24.697 15.9184C24.3524 16.0648 23.9819 16.1405 23.6075 16.1409L23.6092 16.1384ZM23.295 14.6809C23.519 14.6823 23.7407 14.6366 23.9458 14.5467C24.144 14.4592 24.3243 14.3357 24.4775 14.1825C24.6315 14.0285 24.7536 13.8456 24.8367 13.6442C25.0078 13.2162 25.0078 12.7389 24.8367 12.3109C24.7536 12.1095 24.6315 11.9266 24.4775 11.7725C24.3243 11.6194 24.144 11.4959 23.9458 11.4084C23.7408 11.3181 23.519 11.2724 23.295 11.2742C23.0659 11.272 22.8388 11.3177 22.6283 11.4084C22.429 11.4942 22.2481 11.6179 22.0958 11.7725C21.9446 11.9294 21.8249 12.1138 21.7433 12.3159C21.6573 12.5258 21.6134 12.7506 21.6142 12.9775C21.6105 13.4268 21.7835 13.8596 22.0958 14.1825C22.2521 14.3419 22.4387 14.4683 22.6447 14.5542C22.8507 14.6401 23.0718 14.6837 23.295 14.6825V14.6809ZM27.6283 9.96254H29.1525V10.8925C29.2771 10.5638 29.5075 10.2859 29.8075 10.1025C30.1173 9.92983 30.4679 9.84349 30.8225 9.85254C31.0131 9.85138 31.2032 9.87377 31.3883 9.91921C31.5455 9.95676 31.6976 10.0127 31.8417 10.0859L31.2817 11.61C31.18 11.5411 31.0672 11.4901 30.9483 11.4592C30.7954 11.4164 30.6371 11.3956 30.4783 11.3975C30.0817 11.3975 29.7639 11.5087 29.525 11.7309C29.2861 11.9531 29.1667 12.3164 29.1667 12.8209V16.015H27.6267L27.6283 9.96254ZM35.2642 16.1384C34.8294 16.1414 34.3985 16.0563 33.9975 15.8884C33.6186 15.7303 33.2741 15.4999 32.9833 15.21C32.6908 14.9184 32.4591 14.5715 32.3018 14.1895C32.1444 13.8075 32.0645 13.3981 32.0667 12.985C32.0642 12.5642 32.1461 12.1471 32.3075 11.7584C32.4628 11.3836 32.6914 11.0436 32.98 10.7584C33.2813 10.4632 33.6378 10.2303 34.0292 10.073C34.4205 9.91571 34.8391 9.83712 35.2608 9.84171C35.6936 9.83982 36.1224 9.92483 36.5217 10.0917C36.902 10.2478 37.2484 10.4762 37.5417 10.7642C37.8359 11.056 38.0692 11.4035 38.2278 11.7863C38.3865 12.1692 38.4674 12.5798 38.4658 12.9942C38.4688 13.414 38.3851 13.8299 38.22 14.2159C38.06 14.5882 37.832 14.9273 37.5475 15.2159C37.2578 15.5074 36.9127 15.738 36.5325 15.8942C36.13 16.0595 35.6984 16.1426 35.2633 16.1384H35.2642ZM35.275 14.67C35.4988 14.6717 35.7204 14.6257 35.925 14.535C36.1215 14.4494 36.3004 14.3279 36.4525 14.1767C36.6039 14.0242 36.7237 13.8432 36.805 13.6442C36.8922 13.4329 36.9361 13.2062 36.9342 12.9775C36.9349 12.7506 36.891 12.5258 36.805 12.3159C36.7244 12.1151 36.6045 11.9323 36.4525 11.7784C36.3004 11.6272 36.1215 11.5057 35.925 11.42C35.7199 11.331 35.4986 11.2851 35.275 11.2851C35.0514 11.2851 34.8301 11.331 34.625 11.42C34.4288 11.5059 34.2503 11.6274 34.0983 11.7784C33.9463 11.9323 33.8265 12.1151 33.7458 12.3159C33.6594 12.5257 33.6155 12.7506 33.6167 12.9775C33.6143 13.2062 33.6582 13.433 33.7458 13.6442C33.8271 13.8432 33.9469 14.0242 34.0983 14.1767C34.2503 14.3276 34.4288 14.4491 34.625 14.535C34.8296 14.6244 35.0509 14.6693 35.2742 14.6667L35.275 14.67ZM6.25 9.96087H7.8175L9.03833 13.8225L10.4708 9.96087H11.8483L13.2592 13.8225L14.5242 9.96087H16.0917L14.0425 16.0067H12.5875L11.1425 12.0659L9.6875 16.0067H8.20917L6.25 9.96087Z" fill="white"/>
</svg>
